<?xml version="1.0" encoding="UTF-8" standalone="no"?>
<!DOCTYPE svg PUBLIC "-//W3C//DTD SVG 1.1//EN"
 "http://www.w3.org/Graphics/SVG/1.1/DTD/svg11.dtd">
<!-- Generated by graphviz version 2.43.0 (0)
 -->
<!-- Title: arduino_lmic.h Pages: 1 -->
<svg width="500pt" height="476pt"
 viewBox="0.00 0.00 500.00 476.00" xmlns="http://www.w3.org/2000/svg" xmlns:xlink="http://www.w3.org/1999/xlink">
<g id="graph0" class="graph" transform="scale(1 1) rotate(0) translate(4 472)">
<title>arduino_lmic.h</title>
<polygon fill="white" stroke="transparent" points="-4,4 -4,-472 496,-472 496,4 -4,4"/>
<!-- Node1 -->
<g id="node1" class="node">
<title>Node1</title>
<g id="a_node1"><a xlink:title=" ">
<polygon fill="#bfbfbf" stroke="black" points="285.5,-448.5 285.5,-467.5 374.5,-467.5 374.5,-448.5 285.5,-448.5"/>
<text text-anchor="middle" x="330" y="-455.5" font-family="Helvetica,sans-Serif" font-size="10.00">arduino_lmic.h</text>
</a>
</g>
</g>
<!-- Node2 -->
<g id="node2" class="node">
<title>Node2</title>
<g id="a_node2"><a xlink:href="lmic_2lmic_8h.html" target="_top" xlink:title="LMIC API.">
<polygon fill="white" stroke="black" points="112.5,-224.5 112.5,-243.5 183.5,-243.5 183.5,-224.5 112.5,-224.5"/>
<text text-anchor="middle" x="148" y="-231.5" font-family="Helvetica,sans-Serif" font-size="10.00">lmic/lmic.h</text>
</a>
</g>
</g>
<!-- Node1&#45;&gt;Node2 -->
<g id="edge1" class="edge">
<title>Node1&#45;&gt;Node2</title>
<path fill="none" stroke="midnightblue" d="M330.48,-448.17C331.55,-418.74 330.61,-323.39 277,-280 252.97,-260.55 219.96,-249.24 193.36,-242.82"/>
<polygon fill="midnightblue" stroke="midnightblue" points="194.03,-239.39 183.5,-240.6 192.49,-246.22 194.03,-239.39"/>
</g>
<!-- Node15 -->
<g id="node15" class="node">
<title>Node15</title>
<g id="a_node15"><a xlink:href="lmic__bandplan_8h.html" target="_top" xlink:title=" ">
<polygon fill="white" stroke="black" points="175.5,-392.5 175.5,-411.5 296.5,-411.5 296.5,-392.5 175.5,-392.5"/>
<text text-anchor="middle" x="236" y="-399.5" font-family="Helvetica,sans-Serif" font-size="10.00">lmic/lmic_bandplan.h</text>
</a>
</g>
</g>
<!-- Node1&#45;&gt;Node15 -->
<g id="edge16" class="edge">
<title>Node1&#45;&gt;Node15</title>
<path fill="none" stroke="midnightblue" d="M314.9,-448.32C300.1,-439.82 277.31,-426.73 260.02,-416.8"/>
<polygon fill="midnightblue" stroke="midnightblue" points="261.48,-413.6 251.07,-411.65 257.99,-419.67 261.48,-413.6"/>
</g>
<!-- Node18 -->
<g id="node18" class="node">
<title>Node18</title>
<g id="a_node18"><a xlink:href="lmic__util_8h.html" target="_top" xlink:title=" ">
<polygon fill="white" stroke="black" points="400,-336.5 400,-355.5 492,-355.5 492,-336.5 400,-336.5"/>
<text text-anchor="middle" x="446" y="-343.5" font-family="Helvetica,sans-Serif" font-size="10.00">lmic/lmic_util.h</text>
</a>
</g>
</g>
<!-- Node1&#45;&gt;Node18 -->
<g id="edge21" class="edge">
<title>Node1&#45;&gt;Node18</title>
<path fill="none" stroke="midnightblue" d="M339.1,-448.37C358.58,-429.89 404.56,-386.29 429.4,-362.74"/>
<polygon fill="midnightblue" stroke="midnightblue" points="432.09,-365.01 436.94,-355.59 427.28,-359.93 432.09,-365.01"/>
</g>
<!-- Node3 -->
<g id="node3" class="node">
<title>Node3</title>
<g id="a_node3"><a xlink:href="oslmic_8h.html" target="_top" xlink:title=" ">
<polygon fill="white" stroke="black" points="193,-168.5 193,-187.5 251,-187.5 251,-168.5 193,-168.5"/>
<text text-anchor="middle" x="222" y="-175.5" font-family="Helvetica,sans-Serif" font-size="10.00">oslmic.h</text>
</a>
</g>
</g>
<!-- Node2&#45;&gt;Node3 -->
<g id="edge2" class="edge">
<title>Node2&#45;&gt;Node3</title>
<path fill="none" stroke="midnightblue" d="M159.89,-224.32C171.15,-216.11 188.29,-203.6 201.71,-193.81"/>
<polygon fill="midnightblue" stroke="midnightblue" points="203.88,-196.56 209.89,-187.83 199.75,-190.9 203.88,-196.56"/>
</g>
<!-- Node13 -->
<g id="node13" class="node">
<title>Node13</title>
<g id="a_node13"><a xlink:href="lorabase_8h.html" target="_top" xlink:title=" ">
<polygon fill="white" stroke="black" points="0,-168.5 0,-187.5 68,-187.5 68,-168.5 0,-168.5"/>
<text text-anchor="middle" x="34" y="-175.5" font-family="Helvetica,sans-Serif" font-size="10.00">lorabase.h</text>
</a>
</g>
</g>
<!-- Node2&#45;&gt;Node13 -->
<g id="edge14" class="edge">
<title>Node2&#45;&gt;Node13</title>
<path fill="none" stroke="midnightblue" d="M129.94,-224.44C111.43,-215.68 82.42,-201.94 61.14,-191.86"/>
<polygon fill="midnightblue" stroke="midnightblue" points="62.51,-188.63 51.98,-187.52 59.52,-194.96 62.51,-188.63"/>
</g>
<!-- Node14 -->
<g id="node14" class="node">
<title>Node14</title>
<g id="a_node14"><a xlink:href="lmic__compat_8h.html" target="_top" xlink:title=" ">
<polygon fill="white" stroke="black" points="86.5,-168.5 86.5,-187.5 175.5,-187.5 175.5,-168.5 86.5,-168.5"/>
<text text-anchor="middle" x="131" y="-175.5" font-family="Helvetica,sans-Serif" font-size="10.00">lmic_compat.h</text>
</a>
</g>
</g>
<!-- Node2&#45;&gt;Node14 -->
<g id="edge15" class="edge">
<title>Node2&#45;&gt;Node14</title>
<path fill="none" stroke="midnightblue" d="M145.19,-224.08C142.92,-216.85 139.63,-206.41 136.79,-197.4"/>
<polygon fill="midnightblue" stroke="midnightblue" points="140.1,-196.24 133.75,-187.75 133.42,-198.34 140.1,-196.24"/>
</g>
<!-- Node4 -->
<g id="node4" class="node">
<title>Node4</title>
<g id="a_node4"><a xlink:href="config_8h.html" target="_top" xlink:title=" ">
<polygon fill="white" stroke="black" points="361.5,-112.5 361.5,-131.5 416.5,-131.5 416.5,-112.5 361.5,-112.5"/>
<text text-anchor="middle" x="389" y="-119.5" font-family="Helvetica,sans-Serif" font-size="10.00">config.h</text>
</a>
</g>
</g>
<!-- Node3&#45;&gt;Node4 -->
<g id="edge3" class="edge">
<title>Node3&#45;&gt;Node4</title>
<path fill="none" stroke="midnightblue" d="M248.46,-168.44C276.68,-159.32 321.54,-144.81 352.97,-134.65"/>
<polygon fill="midnightblue" stroke="midnightblue" points="354.22,-137.92 362.66,-131.52 352.07,-131.26 354.22,-137.92"/>
</g>
<!-- Node6 -->
<g id="node6" class="node">
<title>Node6</title>
<g id="a_node6"><a xlink:title=" ">
<polygon fill="white" stroke="#bfbfbf" points="3,-112.5 3,-131.5 53,-131.5 53,-112.5 3,-112.5"/>
<text text-anchor="middle" x="28" y="-119.5" font-family="Helvetica,sans-Serif" font-size="10.00">stdio.h</text>
</a>
</g>
</g>
<!-- Node3&#45;&gt;Node6 -->
<g id="edge5" class="edge">
<title>Node3&#45;&gt;Node6</title>
<path fill="none" stroke="midnightblue" d="M192.96,-168.92C158.27,-159.26 100.29,-143.12 63.12,-132.77"/>
<polygon fill="midnightblue" stroke="midnightblue" points="63.79,-129.33 53.22,-130.02 61.92,-136.07 63.79,-129.33"/>
</g>
<!-- Node7 -->
<g id="node7" class="node">
<title>Node7</title>
<g id="a_node7"><a xlink:href="lmic__env_8h.html" target="_top" xlink:title=" ">
<polygon fill="white" stroke="black" points="76.5,-56.5 76.5,-75.5 145.5,-75.5 145.5,-56.5 76.5,-56.5"/>
<text text-anchor="middle" x="111" y="-63.5" font-family="Helvetica,sans-Serif" font-size="10.00">lmic_env.h</text>
</a>
</g>
</g>
<!-- Node3&#45;&gt;Node7 -->
<g id="edge6" class="edge">
<title>Node3&#45;&gt;Node7</title>
<path fill="none" stroke="midnightblue" d="M193.9,-168.49C159.65,-157.85 105.6,-140.03 100,-132 90.42,-118.25 95.4,-98.96 101.42,-84.97"/>
<polygon fill="midnightblue" stroke="midnightblue" points="104.61,-86.4 105.79,-75.87 98.3,-83.37 104.61,-86.4"/>
</g>
<!-- Node8 -->
<g id="node8" class="node">
<title>Node8</title>
<g id="a_node8"><a xlink:href="oslmic__types_8h.html" target="_top" xlink:title=" ">
<polygon fill="white" stroke="black" points="175,-56.5 175,-75.5 265,-75.5 265,-56.5 175,-56.5"/>
<text text-anchor="middle" x="220" y="-63.5" font-family="Helvetica,sans-Serif" font-size="10.00">oslmic_types.h</text>
</a>
</g>
</g>
<!-- Node3&#45;&gt;Node8 -->
<g id="edge7" class="edge">
<title>Node3&#45;&gt;Node8</title>
<path fill="none" stroke="midnightblue" d="M224.39,-168.18C227.48,-155.68 232.21,-132.12 230,-112 229.03,-103.14 227.01,-93.47 225.04,-85.38"/>
<polygon fill="midnightblue" stroke="midnightblue" points="228.38,-84.33 222.48,-75.53 221.61,-86.09 228.38,-84.33"/>
</g>
<!-- Node10 -->
<g id="node10" class="node">
<title>Node10</title>
<g id="a_node10"><a xlink:title=" ">
<polygon fill="white" stroke="#bfbfbf" points="168.5,-112.5 168.5,-131.5 221.5,-131.5 221.5,-112.5 168.5,-112.5"/>
<text text-anchor="middle" x="195" y="-119.5" font-family="Helvetica,sans-Serif" font-size="10.00">string.h</text>
</a>
</g>
</g>
<!-- Node3&#45;&gt;Node10 -->
<g id="edge9" class="edge">
<title>Node3&#45;&gt;Node10</title>
<path fill="none" stroke="midnightblue" d="M217.54,-168.08C213.85,-160.69 208.48,-149.95 203.91,-140.81"/>
<polygon fill="midnightblue" stroke="midnightblue" points="206.98,-139.13 199.38,-131.75 200.72,-142.26 206.98,-139.13"/>
</g>
<!-- Node11 -->
<g id="node11" class="node">
<title>Node11</title>
<g id="a_node11"><a xlink:href="lmic_2hal_8h.html" target="_top" xlink:title=" ">
<polygon fill="white" stroke="black" points="109.5,-112.5 109.5,-131.5 150.5,-131.5 150.5,-112.5 109.5,-112.5"/>
<text text-anchor="middle" x="130" y="-119.5" font-family="Helvetica,sans-Serif" font-size="10.00">hal.h</text>
</a>
</g>
</g>
<!-- Node3&#45;&gt;Node11 -->
<g id="edge10" class="edge">
<title>Node3&#45;&gt;Node11</title>
<path fill="none" stroke="midnightblue" d="M207.22,-168.32C192.73,-159.82 170.43,-146.73 153.51,-136.8"/>
<polygon fill="midnightblue" stroke="midnightblue" points="155.14,-133.7 144.74,-131.65 151.6,-139.74 155.14,-133.7"/>
</g>
<!-- Node12 -->
<g id="node12" class="node">
<title>Node12</title>
<g id="a_node12"><a xlink:title=" ">
<polygon fill="white" stroke="#bfbfbf" points="278.5,-112.5 278.5,-131.5 343.5,-131.5 343.5,-112.5 278.5,-112.5"/>
<text text-anchor="middle" x="311" y="-119.5" font-family="Helvetica,sans-Serif" font-size="10.00">inttypes.h</text>
</a>
</g>
</g>
<!-- Node3&#45;&gt;Node12 -->
<g id="edge13" class="edge">
<title>Node3&#45;&gt;Node12</title>
<path fill="none" stroke="midnightblue" d="M236.3,-168.32C250.18,-159.9 271.49,-146.97 287.8,-137.07"/>
<polygon fill="midnightblue" stroke="midnightblue" points="290,-139.83 296.74,-131.65 286.37,-133.85 290,-139.83"/>
</g>
<!-- Node5 -->
<g id="node5" class="node">
<title>Node5</title>
<g id="a_node5"><a xlink:href="lmic__config__preconditions_8h.html" target="_top" xlink:title=" ">
<polygon fill="white" stroke="black" points="283,-56.5 283,-75.5 435,-75.5 435,-56.5 283,-56.5"/>
<text text-anchor="middle" x="359" y="-63.5" font-family="Helvetica,sans-Serif" font-size="10.00">lmic_config_preconditions.h</text>
</a>
</g>
</g>
<!-- Node4&#45;&gt;Node5 -->
<g id="edge4" class="edge">
<title>Node4&#45;&gt;Node5</title>
<path fill="none" stroke="midnightblue" d="M384.05,-112.08C379.9,-104.61 373.85,-93.72 368.73,-84.52"/>
<polygon fill="midnightblue" stroke="midnightblue" points="371.78,-82.79 363.86,-75.75 365.66,-86.19 371.78,-82.79"/>
</g>
<!-- Node9 -->
<g id="node9" class="node">
<title>Node9</title>
<g id="a_node9"><a xlink:title=" ">
<polygon fill="white" stroke="#bfbfbf" points="314.5,-0.5 314.5,-19.5 367.5,-19.5 367.5,-0.5 314.5,-0.5"/>
<text text-anchor="middle" x="341" y="-7.5" font-family="Helvetica,sans-Serif" font-size="10.00">stdint.h</text>
</a>
</g>
</g>
<!-- Node8&#45;&gt;Node9 -->
<g id="edge8" class="edge">
<title>Node8&#45;&gt;Node9</title>
<path fill="none" stroke="midnightblue" d="M239.17,-56.44C258.91,-47.64 289.89,-33.81 312.49,-23.72"/>
<polygon fill="midnightblue" stroke="midnightblue" points="314.21,-26.79 321.92,-19.52 311.36,-20.4 314.21,-26.79"/>
</g>
<!-- Node11&#45;&gt;Node7 -->
<g id="edge12" class="edge">
<title>Node11&#45;&gt;Node7</title>
<path fill="none" stroke="midnightblue" d="M126.86,-112.08C124.32,-104.85 120.64,-94.41 117.47,-85.4"/>
<polygon fill="midnightblue" stroke="midnightblue" points="120.7,-84.02 114.08,-75.75 114.1,-86.35 120.7,-84.02"/>
</g>
<!-- Node11&#45;&gt;Node8 -->
<g id="edge11" class="edge">
<title>Node11&#45;&gt;Node8</title>
<path fill="none" stroke="midnightblue" d="M144.46,-112.32C158.5,-103.9 180.05,-90.97 196.54,-81.07"/>
<polygon fill="midnightblue" stroke="midnightblue" points="198.8,-83.8 205.58,-75.65 195.2,-77.8 198.8,-83.8"/>
</g>
<!-- Node15&#45;&gt;Node2 -->
<g id="edge17" class="edge">
<title>Node15&#45;&gt;Node2</title>
<path fill="none" stroke="midnightblue" d="M210.08,-392.39C193.2,-385.35 172.29,-373.66 161,-356 140.97,-324.66 142.34,-279.21 145.15,-253.87"/>
<polygon fill="midnightblue" stroke="midnightblue" points="148.65,-254.13 146.47,-243.76 141.7,-253.23 148.65,-254.13"/>
</g>
<!-- Node16 -->
<g id="node16" class="node">
<title>Node16</title>
<g id="a_node16"><a xlink:href="lmic__bandplan__eu868_8h.html" target="_top" xlink:title=" ">
<polygon fill="white" stroke="black" points="170,-336.5 170,-355.5 302,-355.5 302,-336.5 170,-336.5"/>
<text text-anchor="middle" x="236" y="-343.5" font-family="Helvetica,sans-Serif" font-size="10.00">lmic_bandplan_eu868.h</text>
</a>
</g>
</g>
<!-- Node15&#45;&gt;Node16 -->
<g id="edge18" class="edge">
<title>Node15&#45;&gt;Node16</title>
<path fill="none" stroke="midnightblue" d="M236,-392.08C236,-385.01 236,-374.86 236,-365.99"/>
<polygon fill="midnightblue" stroke="midnightblue" points="239.5,-365.75 236,-355.75 232.5,-365.75 239.5,-365.75"/>
</g>
<!-- Node17 -->
<g id="node17" class="node">
<title>Node17</title>
<g id="a_node17"><a xlink:href="lmic__eu__like_8h.html" target="_top" xlink:title=" ">
<polygon fill="white" stroke="black" points="182,-280.5 182,-299.5 268,-299.5 268,-280.5 182,-280.5"/>
<text text-anchor="middle" x="225" y="-287.5" font-family="Helvetica,sans-Serif" font-size="10.00">lmic_eu_like.h</text>
</a>
</g>
</g>
<!-- Node16&#45;&gt;Node17 -->
<g id="edge19" class="edge">
<title>Node16&#45;&gt;Node17</title>
<path fill="none" stroke="midnightblue" d="M234.18,-336.08C232.73,-328.93 230.63,-318.64 228.81,-309.69"/>
<polygon fill="midnightblue" stroke="midnightblue" points="232.21,-308.85 226.78,-299.75 225.35,-310.25 232.21,-308.85"/>
</g>
<!-- Node17&#45;&gt;Node2 -->
<g id="edge20" class="edge">
<title>Node17&#45;&gt;Node2</title>
<path fill="none" stroke="midnightblue" d="M212.63,-280.32C200.84,-272.06 182.87,-259.45 168.86,-249.63"/>
<polygon fill="midnightblue" stroke="midnightblue" points="170.54,-246.53 160.34,-243.65 166.52,-252.26 170.54,-246.53"/>
</g>
<!-- Node18&#45;&gt;Node9 -->
<g id="edge22" class="edge">
<title>Node18&#45;&gt;Node9</title>
<path fill="none" stroke="midnightblue" d="M448.29,-336.23C452.93,-317.69 463,-273.07 463,-235 463,-235 463,-235 463,-121 463,-90.9 463.88,-78.6 444,-56 426.78,-36.44 399.5,-25.04 377.34,-18.61"/>
<polygon fill="midnightblue" stroke="midnightblue" points="378.13,-15.2 367.57,-15.99 376.32,-21.96 378.13,-15.2"/>
</g>
</g>
</svg>
