<?xml version="1.0" encoding="UTF-8" standalone="no"?>
<!DOCTYPE svg PUBLIC "-//W3C//DTD SVG 1.1//EN"
 "http://www.w3.org/Graphics/SVG/1.1/DTD/svg11.dtd">
<!-- Generated by graphviz version 2.43.0 (0)
 -->
<!-- Title: arduino_lmic_hal_configuration.h Pages: 1 -->
<svg width="227pt" height="84pt"
 viewBox="0.00 0.00 226.50 84.00" xmlns="http://www.w3.org/2000/svg" xmlns:xlink="http://www.w3.org/1999/xlink">
<g id="graph0" class="graph" transform="scale(1 1) rotate(0) translate(4 80)">
<title>arduino_lmic_hal_configuration.h</title>
<polygon fill="white" stroke="transparent" points="-4,4 -4,-80 222.5,-80 222.5,4 -4,4"/>
<!-- Node1 -->
<g id="node1" class="node">
<title>Node1</title>
<g id="a_node1"><a xlink:title=" ">
<polygon fill="#bfbfbf" stroke="black" points="40.5,-56.5 40.5,-75.5 218.5,-75.5 218.5,-56.5 40.5,-56.5"/>
<text text-anchor="middle" x="129.5" y="-63.5" font-family="Helvetica,sans-Serif" font-size="10.00">arduino_lmic_hal_configuration.h</text>
</a>
</g>
</g>
<!-- Node2 -->
<g id="node2" class="node">
<title>Node2</title>
<g id="a_node2"><a xlink:href="arduino__lmic__hal__boards_8h.html" target="_top" xlink:title=" ">
<polygon fill="white" stroke="black" points="0,-0.5 0,-19.5 147,-19.5 147,-0.5 0,-0.5"/>
<text text-anchor="middle" x="73.5" y="-7.5" font-family="Helvetica,sans-Serif" font-size="10.00">arduino_lmic_hal_boards.h</text>
</a>
</g>
</g>
<!-- Node1&#45;&gt;Node2 -->
<g id="edge1" class="edge">
<title>Node1&#45;&gt;Node2</title>
<path fill="none" stroke="midnightblue" d="M113.17,-49.25C103.24,-39.67 90.91,-27.79 82.66,-19.83"/>
<polygon fill="midnightblue" stroke="midnightblue" points="110.87,-51.9 120.5,-56.32 115.73,-46.86 110.87,-51.9"/>
</g>
<!-- Node3 -->
<g id="node3" class="node">
<title>Node3</title>
<g id="a_node3"><a xlink:href="hal_2hal_8h.html" target="_top" xlink:title=" ">
<polygon fill="white" stroke="black" points="165,-0.5 165,-19.5 206,-19.5 206,-0.5 165,-0.5"/>
<text text-anchor="middle" x="185.5" y="-7.5" font-family="Helvetica,sans-Serif" font-size="10.00">hal.h</text>
</a>
</g>
</g>
<!-- Node1&#45;&gt;Node3 -->
<g id="edge2" class="edge">
<title>Node1&#45;&gt;Node3</title>
<path fill="none" stroke="midnightblue" d="M145.83,-49.25C155.76,-39.67 168.09,-27.79 176.34,-19.83"/>
<polygon fill="midnightblue" stroke="midnightblue" points="143.27,-46.86 138.5,-56.32 148.13,-51.9 143.27,-46.86"/>
</g>
</g>
</svg>
