<?xml version="1.0" encoding="UTF-8" standalone="no"?>
<!DOCTYPE svg PUBLIC "-//W3C//DTD SVG 1.1//EN"
 "http://www.w3.org/Graphics/SVG/1.1/DTD/svg11.dtd">
<!-- Generated by graphviz version 2.43.0 (0)
 -->
<!-- Title: arduino_lmic_hal_configuration.h Pages: 1 -->
<svg width="190pt" height="84pt"
 viewBox="0.00 0.00 189.50 84.00" xmlns="http://www.w3.org/2000/svg" xmlns:xlink="http://www.w3.org/1999/xlink">
<g id="graph0" class="graph" transform="scale(1 1) rotate(0) translate(4 80)">
<title>arduino_lmic_hal_configuration.h</title>
<polygon fill="white" stroke="transparent" points="-4,4 -4,-80 185.5,-80 185.5,4 -4,4"/>
<!-- Node1 -->
<g id="node1" class="node">
<title>Node1</title>
<g id="a_node1"><a xlink:title=" ">
<polygon fill="#bfbfbf" stroke="black" points="0,-56.5 0,-75.5 178,-75.5 178,-56.5 0,-56.5"/>
<text text-anchor="middle" x="89" y="-63.5" font-family="Helvetica,sans-Serif" font-size="10.00">arduino_lmic_hal_configuration.h</text>
</a>
</g>
</g>
<!-- Node2 -->
<g id="node2" class="node">
<title>Node2</title>
<g id="a_node2"><a xlink:title=" ">
<polygon fill="white" stroke="#bfbfbf" points="17.5,-0.5 17.5,-19.5 70.5,-19.5 70.5,-0.5 17.5,-0.5"/>
<text text-anchor="middle" x="44" y="-7.5" font-family="Helvetica,sans-Serif" font-size="10.00">stdint.h</text>
</a>
</g>
</g>
<!-- Node1&#45;&gt;Node2 -->
<g id="edge1" class="edge">
<title>Node1&#45;&gt;Node2</title>
<path fill="none" stroke="midnightblue" d="M81.57,-56.08C75.15,-48.38 65.69,-37.03 57.88,-27.65"/>
<polygon fill="midnightblue" stroke="midnightblue" points="60.38,-25.19 51.29,-19.75 55.01,-29.67 60.38,-25.19"/>
</g>
<!-- Node3 -->
<g id="node3" class="node">
<title>Node3</title>
<g id="a_node3"><a xlink:href="lmic__env_8h.html" target="_top" xlink:title=" ">
<polygon fill="white" stroke="black" points="88.5,-0.5 88.5,-19.5 181.5,-19.5 181.5,-0.5 88.5,-0.5"/>
<text text-anchor="middle" x="135" y="-7.5" font-family="Helvetica,sans-Serif" font-size="10.00">lmic/lmic_env.h</text>
</a>
</g>
</g>
<!-- Node1&#45;&gt;Node3 -->
<g id="edge2" class="edge">
<title>Node1&#45;&gt;Node3</title>
<path fill="none" stroke="midnightblue" d="M96.6,-56.08C103.23,-48.3 113.02,-36.8 121.06,-27.37"/>
<polygon fill="midnightblue" stroke="midnightblue" points="123.73,-29.63 127.55,-19.75 118.4,-25.09 123.73,-29.63"/>
</g>
</g>
</svg>
