<?xml version="1.0" encoding="UTF-8" standalone="no"?>
<!DOCTYPE svg PUBLIC "-//W3C//DTD SVG 1.1//EN"
 "http://www.w3.org/Graphics/SVG/1.1/DTD/svg11.dtd">
<!-- Generated by graphviz version 2.43.0 (0)
 -->
<!-- Title: src Pages: 1 -->
<svg width="278pt" height="183pt"
 viewBox="0.00 0.00 278.00 183.00" xmlns="http://www.w3.org/2000/svg" xmlns:xlink="http://www.w3.org/1999/xlink">
<g id="graph0" class="graph" transform="scale(1 1) rotate(0) translate(4 179)">
<title>src</title>
<polygon fill="white" stroke="transparent" points="-4,4 -4,-179 274,-179 274,4 -4,4"/>
<g id="clust1" class="cluster">
<title>clusterdir_6cf8f6797ab527d0b5e45805cbd1a73f</title>
<g id="a_clust1"><a xlink:href="dir_6cf8f6797ab527d0b5e45805cbd1a73f.html" target="_top" xlink:title="lmic_sdr">
<polygon fill="#ddddee" stroke="black" points="8,-8 8,-167 262,-167 262,-8 8,-8"/>
<text text-anchor="middle" x="135" y="-155" font-family="Helvetica,sans-Serif" font-size="10.00">lmic_sdr</text>
</a>
</g>
</g>
<g id="clust2" class="cluster">
<title>clusterdir_8d7457dcd92a7145f9a9f97da9361ef0</title>
<g id="a_clust2"><a xlink:href="dir_8d7457dcd92a7145f9a9f97da9361ef0.html" target="_top">
<polygon fill="#eeeeff" stroke="black" points="16,-16 16,-140 254,-140 254,-16 16,-16"/>
</a>
</g>
</g>
<!-- dir_8d7457dcd92a7145f9a9f97da9361ef0 -->
<g id="node1" class="node">
<title>dir_8d7457dcd92a7145f9a9f97da9361ef0</title>
<text text-anchor="middle" x="219" y="-111.5" font-family="Helvetica,sans-Serif" font-size="10.00">src</text>
</g>
<!-- dir_8e677d154b10a241e26ddde7c88a2c06 -->
<g id="node2" class="node">
<title>dir_8e677d154b10a241e26ddde7c88a2c06</title>
<g id="a_node2"><a xlink:href="dir_8e677d154b10a241e26ddde7c88a2c06.html" target="_top" xlink:title="hal">
<polygon fill="white" stroke="black" points="174,-132 120,-132 120,-96 174,-96 174,-132"/>
<text text-anchor="middle" x="147" y="-111.5" font-family="Helvetica,sans-Serif" font-size="10.00">hal</text>
</a>
</g>
</g>
<!-- dir_e0f34102323534905e60333b2371a3a0 -->
<g id="node3" class="node">
<title>dir_e0f34102323534905e60333b2371a3a0</title>
<g id="a_node3"><a xlink:href="dir_e0f34102323534905e60333b2371a3a0.html" target="_top" xlink:title="lmic">
<polygon fill="white" stroke="black" points="174,-60 120,-60 120,-24 174,-24 174,-60"/>
<text text-anchor="middle" x="147" y="-39.5" font-family="Helvetica,sans-Serif" font-size="10.00">lmic</text>
</a>
</g>
</g>
<!-- dir_8e677d154b10a241e26ddde7c88a2c06&#45;&gt;dir_e0f34102323534905e60333b2371a3a0 -->
<g id="edge1" class="edge">
<title>dir_8e677d154b10a241e26ddde7c88a2c06&#45;&gt;dir_e0f34102323534905e60333b2371a3a0</title>
<path fill="none" stroke="black" d="M147,-95.7C147,-87.98 147,-78.71 147,-70.11"/>
<polygon fill="black" stroke="black" points="150.5,-70.1 147,-60.1 143.5,-70.1 150.5,-70.1"/>
<g id="a_edge1&#45;headlabel"><a xlink:href="dir_000009_000005.html" target="_top" xlink:title="1">
<text text-anchor="middle" x="153.34" y="-71.2" font-family="Helvetica,sans-Serif" font-size="10.00">1</text>
</a>
</g>
</g>
<!-- dir_a610926a4718f05f8f941f310d9d2939 -->
<g id="node4" class="node">
<title>dir_a610926a4718f05f8f941f310d9d2939</title>
<g id="a_node4"><a xlink:href="dir_a610926a4718f05f8f941f310d9d2939.html" target="_top" xlink:title="loramac_tcp">
<polygon fill="white" stroke="black" points="101.5,-132 24.5,-132 24.5,-96 101.5,-96 101.5,-132"/>
<text text-anchor="middle" x="63" y="-111.5" font-family="Helvetica,sans-Serif" font-size="10.00">loramac_tcp</text>
</a>
</g>
</g>
</g>
</svg>
