<?xml version="1.0" encoding="UTF-8" standalone="no"?>
<!DOCTYPE svg PUBLIC "-//W3C//DTD SVG 1.1//EN"
 "http://www.w3.org/Graphics/SVG/1.1/DTD/svg11.dtd">
<!-- Generated by graphviz version 2.43.0 (0)
 -->
<!-- Title: lmic_eu_like.h Pages: 1 -->
<svg width="586pt" height="252pt"
 viewBox="0.00 0.00 585.50 252.00" xmlns="http://www.w3.org/2000/svg" xmlns:xlink="http://www.w3.org/1999/xlink">
<g id="graph0" class="graph" transform="scale(1 1) rotate(0) translate(4 248)">
<title>lmic_eu_like.h</title>
<polygon fill="white" stroke="transparent" points="-4,4 -4,-248 581.5,-248 581.5,4 -4,4"/>
<!-- Node1 -->
<g id="node1" class="node">
<title>Node1</title>
<g id="a_node1"><a xlink:title=" ">
<polygon fill="#bfbfbf" stroke="black" points="246.5,-224.5 246.5,-243.5 332.5,-243.5 332.5,-224.5 246.5,-224.5"/>
<text text-anchor="middle" x="289.5" y="-231.5" font-family="Helvetica,sans-Serif" font-size="10.00">lmic_eu_like.h</text>
</a>
</g>
</g>
<!-- Node2 -->
<g id="node2" class="node">
<title>Node2</title>
<g id="a_node2"><a xlink:href="lmic__bandplan__as923_8h.html" target="_top" xlink:title=" ">
<polygon fill="white" stroke="black" points="0,-168.5 0,-187.5 131,-187.5 131,-168.5 0,-168.5"/>
<text text-anchor="middle" x="65.5" y="-175.5" font-family="Helvetica,sans-Serif" font-size="10.00">lmic_bandplan_as923.h</text>
</a>
</g>
</g>
<!-- Node1&#45;&gt;Node2 -->
<g id="edge1" class="edge">
<title>Node1&#45;&gt;Node2</title>
<path fill="none" stroke="midnightblue" d="M244.24,-222.09C201.92,-211.89 139.59,-196.86 100.83,-187.52"/>
<polygon fill="midnightblue" stroke="midnightblue" points="243.46,-225.5 254.01,-224.44 245.11,-218.7 243.46,-225.5"/>
</g>
<!-- Node3 -->
<g id="node3" class="node">
<title>Node3</title>
<g id="a_node3"><a xlink:href="lmic__bandplan__eu868_8h.html" target="_top" xlink:title=" ">
<polygon fill="white" stroke="black" points="149.5,-168.5 149.5,-187.5 281.5,-187.5 281.5,-168.5 149.5,-168.5"/>
<text text-anchor="middle" x="215.5" y="-175.5" font-family="Helvetica,sans-Serif" font-size="10.00">lmic_bandplan_eu868.h</text>
</a>
</g>
</g>
<!-- Node1&#45;&gt;Node3 -->
<g id="edge2" class="edge">
<title>Node1&#45;&gt;Node3</title>
<path fill="none" stroke="midnightblue" d="M269.47,-218.38C256.09,-208.62 238.94,-196.11 227.61,-187.83"/>
<polygon fill="midnightblue" stroke="midnightblue" points="267.47,-221.26 277.61,-224.32 271.6,-215.6 267.47,-221.26"/>
</g>
<!-- Node7 -->
<g id="node7" class="node">
<title>Node7</title>
<g id="a_node7"><a xlink:href="lmic__bandplan__in866_8h.html" target="_top" xlink:title=" ">
<polygon fill="white" stroke="black" points="300,-168.5 300,-187.5 429,-187.5 429,-168.5 300,-168.5"/>
<text text-anchor="middle" x="364.5" y="-175.5" font-family="Helvetica,sans-Serif" font-size="10.00">lmic_bandplan_in866.h</text>
</a>
</g>
</g>
<!-- Node1&#45;&gt;Node7 -->
<g id="edge6" class="edge">
<title>Node1&#45;&gt;Node7</title>
<path fill="none" stroke="midnightblue" d="M309.81,-218.38C323.36,-208.62 340.74,-196.11 352.23,-187.83"/>
<polygon fill="midnightblue" stroke="midnightblue" points="307.62,-215.64 301.55,-224.32 311.71,-221.32 307.62,-215.64"/>
</g>
<!-- Node8 -->
<g id="node8" class="node">
<title>Node8</title>
<g id="a_node8"><a xlink:href="lmic__bandplan__kr920_8h.html" target="_top" xlink:title=" ">
<polygon fill="white" stroke="black" points="447.5,-168.5 447.5,-187.5 577.5,-187.5 577.5,-168.5 447.5,-168.5"/>
<text text-anchor="middle" x="512.5" y="-175.5" font-family="Helvetica,sans-Serif" font-size="10.00">lmic_bandplan_kr920.h</text>
</a>
</g>
</g>
<!-- Node1&#45;&gt;Node8 -->
<g id="edge7" class="edge">
<title>Node1&#45;&gt;Node8</title>
<path fill="none" stroke="midnightblue" d="M334.56,-222.09C376.69,-211.89 438.74,-196.86 477.33,-187.52"/>
<polygon fill="midnightblue" stroke="midnightblue" points="333.73,-218.69 324.84,-224.44 335.38,-225.49 333.73,-218.69"/>
</g>
<!-- Node4 -->
<g id="node4" class="node">
<title>Node4</title>
<g id="a_node4"><a xlink:href="lmic__bandplan_8h.html" target="_top" xlink:title=" ">
<polygon fill="white" stroke="black" points="167,-112.5 167,-131.5 264,-131.5 264,-112.5 167,-112.5"/>
<text text-anchor="middle" x="215.5" y="-119.5" font-family="Helvetica,sans-Serif" font-size="10.00">lmic_bandplan.h</text>
</a>
</g>
</g>
<!-- Node3&#45;&gt;Node4 -->
<g id="edge3" class="edge">
<title>Node3&#45;&gt;Node4</title>
<path fill="none" stroke="midnightblue" d="M215.5,-157.8C215.5,-148.91 215.5,-138.78 215.5,-131.75"/>
<polygon fill="midnightblue" stroke="midnightblue" points="212,-158.08 215.5,-168.08 219,-158.08 212,-158.08"/>
</g>
<!-- Node5 -->
<g id="node5" class="node">
<title>Node5</title>
<g id="a_node5"><a xlink:href="arduino__lmic_8h.html" target="_top" xlink:title=" ">
<polygon fill="white" stroke="black" points="171,-56.5 171,-75.5 260,-75.5 260,-56.5 171,-56.5"/>
<text text-anchor="middle" x="215.5" y="-63.5" font-family="Helvetica,sans-Serif" font-size="10.00">arduino_lmic.h</text>
</a>
</g>
</g>
<!-- Node4&#45;&gt;Node5 -->
<g id="edge4" class="edge">
<title>Node4&#45;&gt;Node5</title>
<path fill="none" stroke="midnightblue" d="M215.5,-101.8C215.5,-92.91 215.5,-82.78 215.5,-75.75"/>
<polygon fill="midnightblue" stroke="midnightblue" points="212,-102.08 215.5,-112.08 219,-102.08 212,-102.08"/>
</g>
<!-- Node6 -->
<g id="node6" class="node">
<title>Node6</title>
<g id="a_node6"><a xlink:href="lmic_8h.html" target="_top" xlink:title=" ">
<polygon fill="white" stroke="black" points="192,-0.5 192,-19.5 239,-19.5 239,-0.5 192,-0.5"/>
<text text-anchor="middle" x="215.5" y="-7.5" font-family="Helvetica,sans-Serif" font-size="10.00">lmic.h</text>
</a>
</g>
</g>
<!-- Node5&#45;&gt;Node6 -->
<g id="edge5" class="edge">
<title>Node5&#45;&gt;Node6</title>
<path fill="none" stroke="midnightblue" d="M215.5,-45.8C215.5,-36.91 215.5,-26.78 215.5,-19.75"/>
<polygon fill="midnightblue" stroke="midnightblue" points="212,-46.08 215.5,-56.08 219,-46.08 212,-46.08"/>
</g>
</g>
</svg>
