<?xml version="1.0" encoding="UTF-8" standalone="no"?>
<!DOCTYPE svg PUBLIC "-//W3C//DTD SVG 1.1//EN"
 "http://www.w3.org/Graphics/SVG/1.1/DTD/svg11.dtd">
<!-- Generated by graphviz version 2.43.0 (0)
 -->
<!-- Title: lmic_config_preconditions.h Pages: 1 -->
<svg width="987pt" height="476pt"
 viewBox="0.00 0.00 987.00 476.00" xmlns="http://www.w3.org/2000/svg" xmlns:xlink="http://www.w3.org/1999/xlink">
<g id="graph0" class="graph" transform="scale(1 1) rotate(0) translate(4 472)">
<title>lmic_config_preconditions.h</title>
<polygon fill="white" stroke="transparent" points="-4,4 -4,-472 983,-472 983,4 -4,4"/>
<!-- Node1 -->
<g id="node1" class="node">
<title>Node1</title>
<g id="a_node1"><a xlink:title=" ">
<polygon fill="#bfbfbf" stroke="black" points="432,-448.5 432,-467.5 584,-467.5 584,-448.5 432,-448.5"/>
<text text-anchor="middle" x="508" y="-455.5" font-family="Helvetica,sans-Serif" font-size="10.00">lmic_config_preconditions.h</text>
</a>
</g>
</g>
<!-- Node2 -->
<g id="node2" class="node">
<title>Node2</title>
<g id="a_node2"><a xlink:href="arduino__lmic__user__configuration_8h.html" target="_top" xlink:title=" ">
<polygon fill="white" stroke="black" points="0,-392.5 0,-411.5 184,-411.5 184,-392.5 0,-392.5"/>
<text text-anchor="middle" x="92" y="-399.5" font-family="Helvetica,sans-Serif" font-size="10.00">arduino_lmic_user_configuration.h</text>
</a>
</g>
</g>
<!-- Node1&#45;&gt;Node2 -->
<g id="edge1" class="edge">
<title>Node1&#45;&gt;Node2</title>
<path fill="none" stroke="midnightblue" d="M431.77,-447.1C353.21,-436.91 232.03,-421.18 157.61,-411.52"/>
<polygon fill="midnightblue" stroke="midnightblue" points="431.72,-450.63 442.08,-448.44 432.62,-443.69 431.72,-450.63"/>
</g>
<!-- Node3 -->
<g id="node3" class="node">
<title>Node3</title>
<g id="a_node3"><a xlink:href="config_8h.html" target="_top" xlink:title=" ">
<polygon fill="white" stroke="black" points="202.5,-392.5 202.5,-411.5 257.5,-411.5 257.5,-392.5 202.5,-392.5"/>
<text text-anchor="middle" x="230" y="-399.5" font-family="Helvetica,sans-Serif" font-size="10.00">config.h</text>
</a>
</g>
</g>
<!-- Node1&#45;&gt;Node3 -->
<g id="edge2" class="edge">
<title>Node1&#45;&gt;Node3</title>
<path fill="none" stroke="midnightblue" d="M447.91,-446.71C399.04,-438.12 328.38,-425.19 267,-412 264.03,-411.36 260.93,-410.66 257.84,-409.94"/>
<polygon fill="midnightblue" stroke="midnightblue" points="447.54,-450.2 457.99,-448.47 448.75,-443.3 447.54,-450.2"/>
</g>
<!-- Node15 -->
<g id="node15" class="node">
<title>Node15</title>
<g id="a_node15"><a xlink:href="lorabase__as923_8h.html" target="_top" xlink:title=" ">
<polygon fill="white" stroke="black" points="276,-392.5 276,-411.5 378,-411.5 378,-392.5 276,-392.5"/>
<text text-anchor="middle" x="327" y="-399.5" font-family="Helvetica,sans-Serif" font-size="10.00">lorabase_as923.h</text>
</a>
</g>
</g>
<!-- Node1&#45;&gt;Node15 -->
<g id="edge16" class="edge">
<title>Node1&#45;&gt;Node15</title>
<path fill="none" stroke="midnightblue" d="M469.68,-445.57C435.54,-435.38 386.34,-420.7 355.55,-411.52"/>
<polygon fill="midnightblue" stroke="midnightblue" points="468.74,-448.94 479.32,-448.44 470.74,-442.23 468.74,-448.94"/>
</g>
<!-- Node16 -->
<g id="node16" class="node">
<title>Node16</title>
<g id="a_node16"><a xlink:href="lorabase__au915_8h.html" target="_top" xlink:title=" ">
<polygon fill="white" stroke="black" points="396.5,-392.5 396.5,-411.5 499.5,-411.5 499.5,-392.5 396.5,-392.5"/>
<text text-anchor="middle" x="448" y="-399.5" font-family="Helvetica,sans-Serif" font-size="10.00">lorabase_au915.h</text>
</a>
</g>
</g>
<!-- Node1&#45;&gt;Node16 -->
<g id="edge17" class="edge">
<title>Node1&#45;&gt;Node16</title>
<path fill="none" stroke="midnightblue" d="M490.82,-441.54C480.12,-431.91 466.74,-419.87 457.82,-411.83"/>
<polygon fill="midnightblue" stroke="midnightblue" points="488.59,-444.24 498.36,-448.32 493.27,-439.03 488.59,-444.24"/>
</g>
<!-- Node17 -->
<g id="node17" class="node">
<title>Node17</title>
<g id="a_node17"><a xlink:href="lorabase__eu868_8h.html" target="_top" xlink:title=" ">
<polygon fill="white" stroke="black" points="517.5,-392.5 517.5,-411.5 620.5,-411.5 620.5,-392.5 517.5,-392.5"/>
<text text-anchor="middle" x="569" y="-399.5" font-family="Helvetica,sans-Serif" font-size="10.00">lorabase_eu868.h</text>
</a>
</g>
</g>
<!-- Node1&#45;&gt;Node17 -->
<g id="edge18" class="edge">
<title>Node1&#45;&gt;Node17</title>
<path fill="none" stroke="midnightblue" d="M525.47,-441.54C536.34,-431.91 549.94,-419.87 559.02,-411.83"/>
<polygon fill="midnightblue" stroke="midnightblue" points="522.97,-439.07 517.8,-448.32 527.61,-444.32 522.97,-439.07"/>
</g>
<!-- Node18 -->
<g id="node18" class="node">
<title>Node18</title>
<g id="a_node18"><a xlink:href="lorabase__in866_8h.html" target="_top" xlink:title=" ">
<polygon fill="white" stroke="black" points="639,-392.5 639,-411.5 739,-411.5 739,-392.5 639,-392.5"/>
<text text-anchor="middle" x="689" y="-399.5" font-family="Helvetica,sans-Serif" font-size="10.00">lorabase_in866.h</text>
</a>
</g>
</g>
<!-- Node1&#45;&gt;Node18 -->
<g id="edge19" class="edge">
<title>Node1&#45;&gt;Node18</title>
<path fill="none" stroke="midnightblue" d="M546.32,-445.57C580.46,-435.38 629.66,-420.7 660.45,-411.52"/>
<polygon fill="midnightblue" stroke="midnightblue" points="545.26,-442.23 536.68,-448.44 547.26,-448.94 545.26,-442.23"/>
</g>
<!-- Node19 -->
<g id="node19" class="node">
<title>Node19</title>
<g id="a_node19"><a xlink:href="lorabase__kr920_8h.html" target="_top" xlink:title=" ">
<polygon fill="white" stroke="black" points="757.5,-392.5 757.5,-411.5 858.5,-411.5 858.5,-392.5 757.5,-392.5"/>
<text text-anchor="middle" x="808" y="-399.5" font-family="Helvetica,sans-Serif" font-size="10.00">lorabase_kr920.h</text>
</a>
</g>
</g>
<!-- Node1&#45;&gt;Node19 -->
<g id="edge20" class="edge">
<title>Node1&#45;&gt;Node19</title>
<path fill="none" stroke="midnightblue" d="M565.42,-446.66C622.12,-436.46 707.79,-421.04 760.69,-411.52"/>
<polygon fill="midnightblue" stroke="midnightblue" points="564.76,-443.23 555.54,-448.44 566,-450.12 564.76,-443.23"/>
</g>
<!-- Node20 -->
<g id="node20" class="node">
<title>Node20</title>
<g id="a_node20"><a xlink:href="lorabase__us915_8h.html" target="_top" xlink:title=" ">
<polygon fill="white" stroke="black" points="877,-392.5 877,-411.5 979,-411.5 979,-392.5 877,-392.5"/>
<text text-anchor="middle" x="928" y="-399.5" font-family="Helvetica,sans-Serif" font-size="10.00">lorabase_us915.h</text>
</a>
</g>
</g>
<!-- Node1&#45;&gt;Node20 -->
<g id="edge21" class="edge">
<title>Node1&#45;&gt;Node20</title>
<path fill="none" stroke="midnightblue" d="M590.53,-447.27C663.54,-438.52 772.94,-425.07 868,-412 870.92,-411.6 873.92,-411.18 876.95,-410.74"/>
<polygon fill="midnightblue" stroke="midnightblue" points="589.98,-443.81 580.47,-448.47 590.81,-450.76 589.98,-443.81"/>
</g>
<!-- Node4 -->
<g id="node4" class="node">
<title>Node4</title>
<g id="a_node4"><a xlink:href="oslmic_8h.html" target="_top" xlink:title=" ">
<polygon fill="white" stroke="black" points="201,-336.5 201,-355.5 259,-355.5 259,-336.5 201,-336.5"/>
<text text-anchor="middle" x="230" y="-343.5" font-family="Helvetica,sans-Serif" font-size="10.00">oslmic.h</text>
</a>
</g>
</g>
<!-- Node3&#45;&gt;Node4 -->
<g id="edge3" class="edge">
<title>Node3&#45;&gt;Node4</title>
<path fill="none" stroke="midnightblue" d="M230,-381.8C230,-372.91 230,-362.78 230,-355.75"/>
<polygon fill="midnightblue" stroke="midnightblue" points="226.5,-382.08 230,-392.08 233.5,-382.08 226.5,-382.08"/>
</g>
<!-- Node5 -->
<g id="node5" class="node">
<title>Node5</title>
<g id="a_node5"><a xlink:href="lmic_2lmic_8h.html" target="_top" xlink:title="LMIC API.">
<polygon fill="white" stroke="black" points="206.5,-280.5 206.5,-299.5 253.5,-299.5 253.5,-280.5 206.5,-280.5"/>
<text text-anchor="middle" x="230" y="-287.5" font-family="Helvetica,sans-Serif" font-size="10.00">lmic.h</text>
</a>
</g>
</g>
<!-- Node4&#45;&gt;Node5 -->
<g id="edge4" class="edge">
<title>Node4&#45;&gt;Node5</title>
<path fill="none" stroke="midnightblue" d="M230,-325.8C230,-316.91 230,-306.78 230,-299.75"/>
<polygon fill="midnightblue" stroke="midnightblue" points="226.5,-326.08 230,-336.08 233.5,-326.08 226.5,-326.08"/>
</g>
<!-- Node6 -->
<g id="node6" class="node">
<title>Node6</title>
<g id="a_node6"><a xlink:href="arduino__lmic_8h.html" target="_top" xlink:title=" ">
<polygon fill="white" stroke="black" points="144.5,-56.5 144.5,-75.5 233.5,-75.5 233.5,-56.5 144.5,-56.5"/>
<text text-anchor="middle" x="189" y="-63.5" font-family="Helvetica,sans-Serif" font-size="10.00">arduino_lmic.h</text>
</a>
</g>
</g>
<!-- Node5&#45;&gt;Node6 -->
<g id="edge5" class="edge">
<title>Node5&#45;&gt;Node6</title>
<path fill="none" stroke="midnightblue" d="M217.46,-272.23C211.8,-264.04 205.42,-253.86 201,-244 179.88,-196.87 176.95,-183.18 170,-132 168.8,-123.19 168.24,-120.71 170,-112 172.69,-98.7 179.44,-84.45 184.12,-75.63"/>
<polygon fill="midnightblue" stroke="midnightblue" points="214.71,-274.4 223.39,-280.49 220.4,-270.32 214.71,-274.4"/>
</g>
<!-- Node8 -->
<g id="node8" class="node">
<title>Node8</title>
<g id="a_node8"><a xlink:href="lmic__bandplan_8h.html" target="_top" xlink:title=" ">
<polygon fill="white" stroke="black" points="179.5,-112.5 179.5,-131.5 276.5,-131.5 276.5,-112.5 179.5,-112.5"/>
<text text-anchor="middle" x="228" y="-119.5" font-family="Helvetica,sans-Serif" font-size="10.00">lmic_bandplan.h</text>
</a>
</g>
</g>
<!-- Node5&#45;&gt;Node8 -->
<g id="edge7" class="edge">
<title>Node5&#45;&gt;Node8</title>
<path fill="none" stroke="midnightblue" d="M219.24,-271.69C214.82,-263.59 210.23,-253.64 208,-244 200.39,-211.09 200.99,-201.04 208,-168 210.84,-154.62 217.94,-140.39 222.87,-131.59"/>
<polygon fill="midnightblue" stroke="midnightblue" points="216.3,-273.6 224.36,-280.48 222.35,-270.08 216.3,-273.6"/>
</g>
<!-- Node9 -->
<g id="node9" class="node">
<title>Node9</title>
<g id="a_node9"><a xlink:href="lmic__compliance_8h.html" target="_top" xlink:title=" ">
<polygon fill="white" stroke="black" points="217,-224.5 217,-243.5 325,-243.5 325,-224.5 217,-224.5"/>
<text text-anchor="middle" x="271" y="-231.5" font-family="Helvetica,sans-Serif" font-size="10.00">lmic_compliance.h</text>
</a>
</g>
</g>
<!-- Node5&#45;&gt;Node9 -->
<g id="edge9" class="edge">
<title>Node5&#45;&gt;Node9</title>
<path fill="none" stroke="midnightblue" d="M243.02,-271.86C250.12,-262.5 258.6,-251.33 264.36,-243.75"/>
<polygon fill="midnightblue" stroke="midnightblue" points="240.03,-270 236.77,-280.08 245.61,-274.24 240.03,-270"/>
</g>
<!-- Node10 -->
<g id="node10" class="node">
<title>Node10</title>
<g id="a_node10"><a xlink:href="lmic__eu__like_8h.html" target="_top" xlink:title=" ">
<polygon fill="white" stroke="black" points="390,-224.5 390,-243.5 476,-243.5 476,-224.5 390,-224.5"/>
<text text-anchor="middle" x="433" y="-231.5" font-family="Helvetica,sans-Serif" font-size="10.00">lmic_eu_like.h</text>
</a>
</g>
</g>
<!-- Node5&#45;&gt;Node10 -->
<g id="edge10" class="edge">
<title>Node5&#45;&gt;Node10</title>
<path fill="none" stroke="midnightblue" d="M263.77,-280.02C301.86,-269.89 363.36,-253.52 400.8,-243.57"/>
<polygon fill="midnightblue" stroke="midnightblue" points="262.45,-276.75 253.68,-282.7 264.25,-283.51 262.45,-276.75"/>
</g>
<!-- Node7 -->
<g id="node7" class="node">
<title>Node7</title>
<g id="a_node7"><a xlink:href="lmic_8h.html" target="_top" xlink:title=" ">
<polygon fill="white" stroke="black" points="165.5,-0.5 165.5,-19.5 212.5,-19.5 212.5,-0.5 165.5,-0.5"/>
<text text-anchor="middle" x="189" y="-7.5" font-family="Helvetica,sans-Serif" font-size="10.00">lmic.h</text>
</a>
</g>
</g>
<!-- Node6&#45;&gt;Node7 -->
<g id="edge6" class="edge">
<title>Node6&#45;&gt;Node7</title>
<path fill="none" stroke="midnightblue" d="M189,-45.8C189,-36.91 189,-26.78 189,-19.75"/>
<polygon fill="midnightblue" stroke="midnightblue" points="185.5,-46.08 189,-56.08 192.5,-46.08 185.5,-46.08"/>
</g>
<!-- Node8&#45;&gt;Node6 -->
<g id="edge8" class="edge">
<title>Node8&#45;&gt;Node6</title>
<path fill="none" stroke="midnightblue" d="M215.62,-103.86C208.86,-94.5 200.79,-83.33 195.32,-75.75"/>
<polygon fill="midnightblue" stroke="midnightblue" points="212.87,-106.03 221.56,-112.08 218.54,-101.93 212.87,-106.03"/>
</g>
<!-- Node11 -->
<g id="node11" class="node">
<title>Node11</title>
<g id="a_node11"><a xlink:href="lmic__bandplan__as923_8h.html" target="_top" xlink:title=" ">
<polygon fill="white" stroke="black" points="217.5,-168.5 217.5,-187.5 348.5,-187.5 348.5,-168.5 217.5,-168.5"/>
<text text-anchor="middle" x="283" y="-175.5" font-family="Helvetica,sans-Serif" font-size="10.00">lmic_bandplan_as923.h</text>
</a>
</g>
</g>
<!-- Node10&#45;&gt;Node11 -->
<g id="edge11" class="edge">
<title>Node10&#45;&gt;Node11</title>
<path fill="none" stroke="midnightblue" d="M399.78,-221.04C371.55,-210.88 331.74,-196.55 306.66,-187.52"/>
<polygon fill="midnightblue" stroke="midnightblue" points="398.64,-224.35 409.23,-224.44 401.01,-217.76 398.64,-224.35"/>
</g>
<!-- Node12 -->
<g id="node12" class="node">
<title>Node12</title>
<g id="a_node12"><a xlink:href="lmic__bandplan__eu868_8h.html" target="_top" xlink:title=" ">
<polygon fill="white" stroke="black" points="367,-168.5 367,-187.5 499,-187.5 499,-168.5 367,-168.5"/>
<text text-anchor="middle" x="433" y="-175.5" font-family="Helvetica,sans-Serif" font-size="10.00">lmic_bandplan_eu868.h</text>
</a>
</g>
</g>
<!-- Node10&#45;&gt;Node12 -->
<g id="edge12" class="edge">
<title>Node10&#45;&gt;Node12</title>
<path fill="none" stroke="midnightblue" d="M433,-213.8C433,-204.91 433,-194.78 433,-187.75"/>
<polygon fill="midnightblue" stroke="midnightblue" points="429.5,-214.08 433,-224.08 436.5,-214.08 429.5,-214.08"/>
</g>
<!-- Node13 -->
<g id="node13" class="node">
<title>Node13</title>
<g id="a_node13"><a xlink:href="lmic__bandplan__in866_8h.html" target="_top" xlink:title=" ">
<polygon fill="white" stroke="black" points="517.5,-168.5 517.5,-187.5 646.5,-187.5 646.5,-168.5 517.5,-168.5"/>
<text text-anchor="middle" x="582" y="-175.5" font-family="Helvetica,sans-Serif" font-size="10.00">lmic_bandplan_in866.h</text>
</a>
</g>
</g>
<!-- Node10&#45;&gt;Node13 -->
<g id="edge14" class="edge">
<title>Node10&#45;&gt;Node13</title>
<path fill="none" stroke="midnightblue" d="M466.37,-220.91C494.38,-210.75 533.7,-196.51 558.5,-187.52"/>
<polygon fill="midnightblue" stroke="midnightblue" points="464.82,-217.75 456.61,-224.44 467.2,-224.33 464.82,-217.75"/>
</g>
<!-- Node14 -->
<g id="node14" class="node">
<title>Node14</title>
<g id="a_node14"><a xlink:href="lmic__bandplan__kr920_8h.html" target="_top" xlink:title=" ">
<polygon fill="white" stroke="black" points="665,-168.5 665,-187.5 795,-187.5 795,-168.5 665,-168.5"/>
<text text-anchor="middle" x="730" y="-175.5" font-family="Helvetica,sans-Serif" font-size="10.00">lmic_bandplan_kr920.h</text>
</a>
</g>
</g>
<!-- Node10&#45;&gt;Node14 -->
<g id="edge15" class="edge">
<title>Node10&#45;&gt;Node14</title>
<path fill="none" stroke="midnightblue" d="M486.25,-223.32C542.18,-213.15 629.3,-197.31 682.83,-187.58"/>
<polygon fill="midnightblue" stroke="midnightblue" points="485.4,-219.92 476.19,-225.15 486.65,-226.8 485.4,-219.92"/>
</g>
<!-- Node12&#45;&gt;Node8 -->
<g id="edge13" class="edge">
<title>Node12&#45;&gt;Node8</title>
<path fill="none" stroke="midnightblue" d="M390.59,-165.83C351.89,-155.63 295.51,-140.78 260.33,-131.52"/>
<polygon fill="midnightblue" stroke="midnightblue" points="389.96,-169.28 400.52,-168.44 391.74,-162.51 389.96,-169.28"/>
</g>
</g>
</svg>
