<?xml version="1.0" encoding="UTF-8" standalone="no"?>
<!DOCTYPE svg PUBLIC "-//W3C//DTD SVG 1.1//EN"
 "http://www.w3.org/Graphics/SVG/1.1/DTD/svg11.dtd">
<!-- Generated by graphviz version 2.43.0 (0)
 -->
<!-- Title: lmic_bandplan_as923.h Pages: 1 -->
<svg width="480pt" height="364pt"
 viewBox="0.00 0.00 479.50 364.00" xmlns="http://www.w3.org/2000/svg" xmlns:xlink="http://www.w3.org/1999/xlink">
<g id="graph0" class="graph" transform="scale(1 1) rotate(0) translate(4 360)">
<title>lmic_bandplan_as923.h</title>
<polygon fill="white" stroke="transparent" points="-4,4 -4,-360 475.5,-360 475.5,4 -4,4"/>
<!-- Node1 -->
<g id="node1" class="node">
<title>Node1</title>
<g id="a_node1"><a xlink:title=" ">
<polygon fill="#bfbfbf" stroke="black" points="264.5,-336.5 264.5,-355.5 395.5,-355.5 395.5,-336.5 264.5,-336.5"/>
<text text-anchor="middle" x="330" y="-343.5" font-family="Helvetica,sans-Serif" font-size="10.00">lmic_bandplan_as923.h</text>
</a>
</g>
</g>
<!-- Node2 -->
<g id="node2" class="node">
<title>Node2</title>
<g id="a_node2"><a xlink:href="lmic__eu__like_8h.html" target="_top" xlink:title=" ">
<polygon fill="white" stroke="black" points="287,-280.5 287,-299.5 373,-299.5 373,-280.5 287,-280.5"/>
<text text-anchor="middle" x="330" y="-287.5" font-family="Helvetica,sans-Serif" font-size="10.00">lmic_eu_like.h</text>
</a>
</g>
</g>
<!-- Node1&#45;&gt;Node2 -->
<g id="edge1" class="edge">
<title>Node1&#45;&gt;Node2</title>
<path fill="none" stroke="midnightblue" d="M330,-336.08C330,-329.01 330,-318.86 330,-309.99"/>
<polygon fill="midnightblue" stroke="midnightblue" points="333.5,-309.75 330,-299.75 326.5,-309.75 333.5,-309.75"/>
</g>
<!-- Node3 -->
<g id="node3" class="node">
<title>Node3</title>
<g id="a_node3"><a xlink:href="lmic_2lmic_8h.html" target="_top" xlink:title="LMIC API.">
<polygon fill="white" stroke="black" points="306.5,-224.5 306.5,-243.5 353.5,-243.5 353.5,-224.5 306.5,-224.5"/>
<text text-anchor="middle" x="330" y="-231.5" font-family="Helvetica,sans-Serif" font-size="10.00">lmic.h</text>
</a>
</g>
</g>
<!-- Node2&#45;&gt;Node3 -->
<g id="edge2" class="edge">
<title>Node2&#45;&gt;Node3</title>
<path fill="none" stroke="midnightblue" d="M330,-280.08C330,-273.01 330,-262.86 330,-253.99"/>
<polygon fill="midnightblue" stroke="midnightblue" points="333.5,-253.75 330,-243.75 326.5,-253.75 333.5,-253.75"/>
</g>
<!-- Node4 -->
<g id="node4" class="node">
<title>Node4</title>
<g id="a_node4"><a xlink:href="oslmic_8h.html" target="_top" xlink:title=" ">
<polygon fill="white" stroke="black" points="220,-168.5 220,-187.5 278,-187.5 278,-168.5 220,-168.5"/>
<text text-anchor="middle" x="249" y="-175.5" font-family="Helvetica,sans-Serif" font-size="10.00">oslmic.h</text>
</a>
</g>
</g>
<!-- Node3&#45;&gt;Node4 -->
<g id="edge3" class="edge">
<title>Node3&#45;&gt;Node4</title>
<path fill="none" stroke="midnightblue" d="M316.99,-224.32C304.47,-215.98 285.32,-203.21 270.53,-193.35"/>
<polygon fill="midnightblue" stroke="midnightblue" points="272.24,-190.29 261.98,-187.65 268.36,-196.11 272.24,-190.29"/>
</g>
<!-- Node14 -->
<g id="node14" class="node">
<title>Node14</title>
<g id="a_node14"><a xlink:href="lorabase_8h.html" target="_top" xlink:title=" ">
<polygon fill="white" stroke="black" points="296,-168.5 296,-187.5 364,-187.5 364,-168.5 296,-168.5"/>
<text text-anchor="middle" x="330" y="-175.5" font-family="Helvetica,sans-Serif" font-size="10.00">lorabase.h</text>
</a>
</g>
</g>
<!-- Node3&#45;&gt;Node14 -->
<g id="edge15" class="edge">
<title>Node3&#45;&gt;Node14</title>
<path fill="none" stroke="midnightblue" d="M330,-224.08C330,-217.01 330,-206.86 330,-197.99"/>
<polygon fill="midnightblue" stroke="midnightblue" points="333.5,-197.75 330,-187.75 326.5,-197.75 333.5,-197.75"/>
</g>
<!-- Node15 -->
<g id="node15" class="node">
<title>Node15</title>
<g id="a_node15"><a xlink:href="lmic__compat_8h.html" target="_top" xlink:title=" ">
<polygon fill="white" stroke="black" points="382.5,-168.5 382.5,-187.5 471.5,-187.5 471.5,-168.5 382.5,-168.5"/>
<text text-anchor="middle" x="427" y="-175.5" font-family="Helvetica,sans-Serif" font-size="10.00">lmic_compat.h</text>
</a>
</g>
</g>
<!-- Node3&#45;&gt;Node15 -->
<g id="edge16" class="edge">
<title>Node3&#45;&gt;Node15</title>
<path fill="none" stroke="midnightblue" d="M345.58,-224.32C361,-215.74 384.81,-202.49 402.71,-192.52"/>
<polygon fill="midnightblue" stroke="midnightblue" points="404.42,-195.58 411.45,-187.65 401.01,-189.46 404.42,-195.58"/>
</g>
<!-- Node5 -->
<g id="node5" class="node">
<title>Node5</title>
<g id="a_node5"><a xlink:href="config_8h.html" target="_top" xlink:title=" ">
<polygon fill="white" stroke="black" points="48.5,-112.5 48.5,-131.5 103.5,-131.5 103.5,-112.5 48.5,-112.5"/>
<text text-anchor="middle" x="76" y="-119.5" font-family="Helvetica,sans-Serif" font-size="10.00">config.h</text>
</a>
</g>
</g>
<!-- Node4&#45;&gt;Node5 -->
<g id="edge4" class="edge">
<title>Node4&#45;&gt;Node5</title>
<path fill="none" stroke="midnightblue" d="M221.59,-168.44C192.23,-159.28 145.48,-144.69 112.9,-134.52"/>
<polygon fill="midnightblue" stroke="midnightblue" points="113.87,-131.16 103.28,-131.52 111.79,-137.84 113.87,-131.16"/>
</g>
<!-- Node7 -->
<g id="node7" class="node">
<title>Node7</title>
<g id="a_node7"><a xlink:title=" ">
<polygon fill="white" stroke="#bfbfbf" points="122,-112.5 122,-131.5 172,-131.5 172,-112.5 122,-112.5"/>
<text text-anchor="middle" x="147" y="-119.5" font-family="Helvetica,sans-Serif" font-size="10.00">stdio.h</text>
</a>
</g>
</g>
<!-- Node4&#45;&gt;Node7 -->
<g id="edge6" class="edge">
<title>Node4&#45;&gt;Node7</title>
<path fill="none" stroke="midnightblue" d="M232.61,-168.32C216.33,-159.7 191.13,-146.36 172.28,-136.39"/>
<polygon fill="midnightblue" stroke="midnightblue" points="173.82,-133.24 163.35,-131.65 170.55,-139.43 173.82,-133.24"/>
</g>
<!-- Node8 -->
<g id="node8" class="node">
<title>Node8</title>
<g id="a_node8"><a xlink:href="lmic__env_8h.html" target="_top" xlink:title=" ">
<polygon fill="white" stroke="black" points="192.5,-56.5 192.5,-75.5 261.5,-75.5 261.5,-56.5 192.5,-56.5"/>
<text text-anchor="middle" x="227" y="-63.5" font-family="Helvetica,sans-Serif" font-size="10.00">lmic_env.h</text>
</a>
</g>
</g>
<!-- Node4&#45;&gt;Node8 -->
<g id="edge7" class="edge">
<title>Node4&#45;&gt;Node8</title>
<path fill="none" stroke="midnightblue" d="M240.79,-168.18C233.46,-159.66 223.24,-146.02 219,-132 214.37,-116.7 217.24,-98.59 220.77,-85.38"/>
<polygon fill="midnightblue" stroke="midnightblue" points="224.18,-86.19 223.74,-75.61 217.48,-84.16 224.18,-86.19"/>
</g>
<!-- Node9 -->
<g id="node9" class="node">
<title>Node9</title>
<g id="a_node9"><a xlink:href="oslmic__types_8h.html" target="_top" xlink:title=" ">
<polygon fill="white" stroke="black" points="302,-56.5 302,-75.5 392,-75.5 392,-56.5 302,-56.5"/>
<text text-anchor="middle" x="347" y="-63.5" font-family="Helvetica,sans-Serif" font-size="10.00">oslmic_types.h</text>
</a>
</g>
</g>
<!-- Node4&#45;&gt;Node9 -->
<g id="edge8" class="edge">
<title>Node4&#45;&gt;Node9</title>
<path fill="none" stroke="midnightblue" d="M276.16,-168.49C302.81,-159.53 340.63,-144.95 349,-132 357.8,-118.38 356.1,-99.59 352.91,-85.71"/>
<polygon fill="midnightblue" stroke="midnightblue" points="356.22,-84.55 350.2,-75.83 349.47,-86.4 356.22,-84.55"/>
</g>
<!-- Node11 -->
<g id="node11" class="node">
<title>Node11</title>
<g id="a_node11"><a xlink:title=" ">
<polygon fill="white" stroke="#bfbfbf" points="287.5,-112.5 287.5,-131.5 340.5,-131.5 340.5,-112.5 287.5,-112.5"/>
<text text-anchor="middle" x="314" y="-119.5" font-family="Helvetica,sans-Serif" font-size="10.00">string.h</text>
</a>
</g>
</g>
<!-- Node4&#45;&gt;Node11 -->
<g id="edge10" class="edge">
<title>Node4&#45;&gt;Node11</title>
<path fill="none" stroke="midnightblue" d="M259.44,-168.32C269.15,-160.26 283.82,-148.08 295.5,-138.37"/>
<polygon fill="midnightblue" stroke="midnightblue" points="297.91,-140.92 303.37,-131.83 293.44,-135.53 297.91,-140.92"/>
</g>
<!-- Node12 -->
<g id="node12" class="node">
<title>Node12</title>
<g id="a_node12"><a xlink:href="lmic_2hal_8h.html" target="_top" xlink:title=" ">
<polygon fill="white" stroke="black" points="228.5,-112.5 228.5,-131.5 269.5,-131.5 269.5,-112.5 228.5,-112.5"/>
<text text-anchor="middle" x="249" y="-119.5" font-family="Helvetica,sans-Serif" font-size="10.00">hal.h</text>
</a>
</g>
</g>
<!-- Node4&#45;&gt;Node12 -->
<g id="edge11" class="edge">
<title>Node4&#45;&gt;Node12</title>
<path fill="none" stroke="midnightblue" d="M249,-168.08C249,-161.01 249,-150.86 249,-141.99"/>
<polygon fill="midnightblue" stroke="midnightblue" points="252.5,-141.75 249,-131.75 245.5,-141.75 252.5,-141.75"/>
</g>
<!-- Node13 -->
<g id="node13" class="node">
<title>Node13</title>
<g id="a_node13"><a xlink:title=" ">
<polygon fill="white" stroke="#bfbfbf" points="397.5,-112.5 397.5,-131.5 462.5,-131.5 462.5,-112.5 397.5,-112.5"/>
<text text-anchor="middle" x="430" y="-119.5" font-family="Helvetica,sans-Serif" font-size="10.00">inttypes.h</text>
</a>
</g>
</g>
<!-- Node4&#45;&gt;Node13 -->
<g id="edge14" class="edge">
<title>Node4&#45;&gt;Node13</title>
<path fill="none" stroke="midnightblue" d="M277.68,-168.44C308.53,-159.24 357.73,-144.56 391.83,-134.39"/>
<polygon fill="midnightblue" stroke="midnightblue" points="392.87,-137.73 401.45,-131.52 390.87,-131.02 392.87,-137.73"/>
</g>
<!-- Node6 -->
<g id="node6" class="node">
<title>Node6</title>
<g id="a_node6"><a xlink:href="lmic__config__preconditions_8h.html" target="_top" xlink:title=" ">
<polygon fill="white" stroke="black" points="0,-56.5 0,-75.5 152,-75.5 152,-56.5 0,-56.5"/>
<text text-anchor="middle" x="76" y="-63.5" font-family="Helvetica,sans-Serif" font-size="10.00">lmic_config_preconditions.h</text>
</a>
</g>
</g>
<!-- Node5&#45;&gt;Node6 -->
<g id="edge5" class="edge">
<title>Node5&#45;&gt;Node6</title>
<path fill="none" stroke="midnightblue" d="M76,-112.08C76,-105.01 76,-94.86 76,-85.99"/>
<polygon fill="midnightblue" stroke="midnightblue" points="79.5,-85.75 76,-75.75 72.5,-85.75 79.5,-85.75"/>
</g>
<!-- Node10 -->
<g id="node10" class="node">
<title>Node10</title>
<g id="a_node10"><a xlink:title=" ">
<polygon fill="white" stroke="#bfbfbf" points="320.5,-0.5 320.5,-19.5 373.5,-19.5 373.5,-0.5 320.5,-0.5"/>
<text text-anchor="middle" x="347" y="-7.5" font-family="Helvetica,sans-Serif" font-size="10.00">stdint.h</text>
</a>
</g>
</g>
<!-- Node9&#45;&gt;Node10 -->
<g id="edge9" class="edge">
<title>Node9&#45;&gt;Node10</title>
<path fill="none" stroke="midnightblue" d="M347,-56.08C347,-49.01 347,-38.86 347,-29.99"/>
<polygon fill="midnightblue" stroke="midnightblue" points="350.5,-29.75 347,-19.75 343.5,-29.75 350.5,-29.75"/>
</g>
<!-- Node12&#45;&gt;Node8 -->
<g id="edge13" class="edge">
<title>Node12&#45;&gt;Node8</title>
<path fill="none" stroke="midnightblue" d="M245.37,-112.08C242.39,-104.77 238.07,-94.18 234.38,-85.1"/>
<polygon fill="midnightblue" stroke="midnightblue" points="237.58,-83.69 230.57,-75.75 231.1,-86.33 237.58,-83.69"/>
</g>
<!-- Node12&#45;&gt;Node9 -->
<g id="edge12" class="edge">
<title>Node12&#45;&gt;Node9</title>
<path fill="none" stroke="midnightblue" d="M264.75,-112.32C280.32,-103.74 304.38,-90.49 322.46,-80.52"/>
<polygon fill="midnightblue" stroke="midnightblue" points="324.22,-83.55 331.29,-75.65 320.85,-77.42 324.22,-83.55"/>
</g>
</g>
</svg>
