<?xml version="1.0" encoding="UTF-8" standalone="no"?>
<!DOCTYPE svg PUBLIC "-//W3C//DTD SVG 1.1//EN"
 "http://www.w3.org/Graphics/SVG/1.1/DTD/svg11.dtd">
<!-- Generated by graphviz version 2.43.0 (0)
 -->
<!-- Title: lmic_env.h Pages: 1 -->
<svg width="881pt" height="476pt"
 viewBox="0.00 0.00 880.50 476.00" xmlns="http://www.w3.org/2000/svg" xmlns:xlink="http://www.w3.org/1999/xlink">
<g id="graph0" class="graph" transform="scale(1 1) rotate(0) translate(4 472)">
<title>lmic_env.h</title>
<polygon fill="white" stroke="transparent" points="-4,4 -4,-472 876.5,-472 876.5,4 -4,4"/>
<!-- Node1 -->
<g id="node1" class="node">
<title>Node1</title>
<g id="a_node1"><a xlink:title=" ">
<polygon fill="#bfbfbf" stroke="black" points="248,-448.5 248,-467.5 317,-467.5 317,-448.5 248,-448.5"/>
<text text-anchor="middle" x="282.5" y="-455.5" font-family="Helvetica,sans-Serif" font-size="10.00">lmic_env.h</text>
</a>
</g>
</g>
<!-- Node2 -->
<g id="node2" class="node">
<title>Node2</title>
<g id="a_node2"><a xlink:href="arduino__lmic__hal__configuration_8h.html" target="_top" xlink:title=" ">
<polygon fill="white" stroke="black" points="66.5,-392.5 66.5,-411.5 244.5,-411.5 244.5,-392.5 66.5,-392.5"/>
<text text-anchor="middle" x="155.5" y="-399.5" font-family="Helvetica,sans-Serif" font-size="10.00">arduino_lmic_hal_configuration.h</text>
</a>
</g>
</g>
<!-- Node1&#45;&gt;Node2 -->
<g id="edge1" class="edge">
<title>Node1&#45;&gt;Node2</title>
<path fill="none" stroke="midnightblue" d="M253.11,-444.5C229.3,-434.38 196.39,-420.39 175.53,-411.52"/>
<polygon fill="midnightblue" stroke="midnightblue" points="251.8,-447.75 262.38,-448.44 254.54,-441.31 251.8,-447.75"/>
</g>
<!-- Node5 -->
<g id="node5" class="node">
<title>Node5</title>
<g id="a_node5"><a xlink:href="lmic_2hal_8h.html" target="_top" xlink:title=" ">
<polygon fill="white" stroke="black" points="262,-392.5 262,-411.5 303,-411.5 303,-392.5 262,-392.5"/>
<text text-anchor="middle" x="282.5" y="-399.5" font-family="Helvetica,sans-Serif" font-size="10.00">hal.h</text>
</a>
</g>
</g>
<!-- Node1&#45;&gt;Node5 -->
<g id="edge4" class="edge">
<title>Node1&#45;&gt;Node5</title>
<path fill="none" stroke="midnightblue" d="M282.5,-437.8C282.5,-428.91 282.5,-418.78 282.5,-411.75"/>
<polygon fill="midnightblue" stroke="midnightblue" points="279,-438.08 282.5,-448.08 286,-438.08 279,-438.08"/>
</g>
<!-- Node6 -->
<g id="node6" class="node">
<title>Node6</title>
<g id="a_node6"><a xlink:href="oslmic_8h.html" target="_top" xlink:title=" ">
<polygon fill="white" stroke="black" points="278.5,-336.5 278.5,-355.5 336.5,-355.5 336.5,-336.5 278.5,-336.5"/>
<text text-anchor="middle" x="307.5" y="-343.5" font-family="Helvetica,sans-Serif" font-size="10.00">oslmic.h</text>
</a>
</g>
</g>
<!-- Node1&#45;&gt;Node6 -->
<g id="edge18" class="edge">
<title>Node1&#45;&gt;Node6</title>
<path fill="none" stroke="midnightblue" d="M296.49,-440.37C302.35,-432.34 308.49,-422.24 311.5,-412 317.25,-392.48 312.93,-368.27 309.87,-355.62"/>
<polygon fill="midnightblue" stroke="midnightblue" points="293.57,-438.42 290.17,-448.46 299.09,-442.73 293.57,-438.42"/>
</g>
<!-- Node3 -->
<g id="node3" class="node">
<title>Node3</title>
<g id="a_node3"><a xlink:href="arduino__lmic__hal__boards_8h.html" target="_top" xlink:title=" ">
<polygon fill="white" stroke="black" points="0,-336.5 0,-355.5 147,-355.5 147,-336.5 0,-336.5"/>
<text text-anchor="middle" x="73.5" y="-343.5" font-family="Helvetica,sans-Serif" font-size="10.00">arduino_lmic_hal_boards.h</text>
</a>
</g>
</g>
<!-- Node2&#45;&gt;Node3 -->
<g id="edge2" class="edge">
<title>Node2&#45;&gt;Node3</title>
<path fill="none" stroke="midnightblue" d="M133.67,-386.62C118.69,-376.76 99.3,-363.99 86.64,-355.65"/>
<polygon fill="midnightblue" stroke="midnightblue" points="132.05,-389.75 142.33,-392.32 135.9,-383.9 132.05,-389.75"/>
</g>
<!-- Node4 -->
<g id="node4" class="node">
<title>Node4</title>
<g id="a_node4"><a xlink:href="hal_2hal_8h.html" target="_top" xlink:title=" ">
<polygon fill="white" stroke="black" points="165,-336.5 165,-355.5 206,-355.5 206,-336.5 165,-336.5"/>
<text text-anchor="middle" x="185.5" y="-343.5" font-family="Helvetica,sans-Serif" font-size="10.00">hal.h</text>
</a>
</g>
</g>
<!-- Node2&#45;&gt;Node4 -->
<g id="edge3" class="edge">
<title>Node2&#45;&gt;Node4</title>
<path fill="none" stroke="midnightblue" d="M165.35,-383.27C170.47,-374.05 176.52,-363.17 180.64,-355.75"/>
<polygon fill="midnightblue" stroke="midnightblue" points="162.25,-381.64 160.45,-392.08 168.37,-385.04 162.25,-381.64"/>
</g>
<!-- Node5&#45;&gt;Node6 -->
<g id="edge5" class="edge">
<title>Node5&#45;&gt;Node6</title>
<path fill="none" stroke="midnightblue" d="M290.84,-382.98C295.08,-373.82 300.05,-363.09 303.45,-355.75"/>
<polygon fill="midnightblue" stroke="midnightblue" points="287.65,-381.54 286.63,-392.08 294.01,-384.48 287.65,-381.54"/>
</g>
<!-- Node7 -->
<g id="node7" class="node">
<title>Node7</title>
<g id="a_node7"><a xlink:href="lmic_2lmic_8h.html" target="_top" xlink:title="LMIC API.">
<polygon fill="white" stroke="black" points="284,-280.5 284,-299.5 331,-299.5 331,-280.5 284,-280.5"/>
<text text-anchor="middle" x="307.5" y="-287.5" font-family="Helvetica,sans-Serif" font-size="10.00">lmic.h</text>
</a>
</g>
</g>
<!-- Node6&#45;&gt;Node7 -->
<g id="edge6" class="edge">
<title>Node6&#45;&gt;Node7</title>
<path fill="none" stroke="midnightblue" d="M307.5,-325.8C307.5,-316.91 307.5,-306.78 307.5,-299.75"/>
<polygon fill="midnightblue" stroke="midnightblue" points="304,-326.08 307.5,-336.08 311,-326.08 304,-326.08"/>
</g>
<!-- Node8 -->
<g id="node8" class="node">
<title>Node8</title>
<g id="a_node8"><a xlink:href="arduino__lmic_8h.html" target="_top" xlink:title=" ">
<polygon fill="white" stroke="black" points="222,-56.5 222,-75.5 311,-75.5 311,-56.5 222,-56.5"/>
<text text-anchor="middle" x="266.5" y="-63.5" font-family="Helvetica,sans-Serif" font-size="10.00">arduino_lmic.h</text>
</a>
</g>
</g>
<!-- Node7&#45;&gt;Node8 -->
<g id="edge7" class="edge">
<title>Node7&#45;&gt;Node8</title>
<path fill="none" stroke="midnightblue" d="M294.96,-272.23C289.3,-264.04 282.92,-253.86 278.5,-244 257.38,-196.87 254.45,-183.18 247.5,-132 246.3,-123.19 245.74,-120.71 247.5,-112 250.19,-98.7 256.94,-84.45 261.62,-75.63"/>
<polygon fill="midnightblue" stroke="midnightblue" points="292.21,-274.4 300.89,-280.49 297.9,-270.32 292.21,-274.4"/>
</g>
<!-- Node10 -->
<g id="node10" class="node">
<title>Node10</title>
<g id="a_node10"><a xlink:href="lmic__bandplan_8h.html" target="_top" xlink:title=" ">
<polygon fill="white" stroke="black" points="257,-112.5 257,-131.5 354,-131.5 354,-112.5 257,-112.5"/>
<text text-anchor="middle" x="305.5" y="-119.5" font-family="Helvetica,sans-Serif" font-size="10.00">lmic_bandplan.h</text>
</a>
</g>
</g>
<!-- Node7&#45;&gt;Node10 -->
<g id="edge9" class="edge">
<title>Node7&#45;&gt;Node10</title>
<path fill="none" stroke="midnightblue" d="M296.74,-271.69C292.32,-263.59 287.73,-253.64 285.5,-244 277.89,-211.09 278.49,-201.04 285.5,-168 288.34,-154.62 295.44,-140.39 300.37,-131.59"/>
<polygon fill="midnightblue" stroke="midnightblue" points="293.8,-273.6 301.86,-280.48 299.85,-270.08 293.8,-273.6"/>
</g>
<!-- Node11 -->
<g id="node11" class="node">
<title>Node11</title>
<g id="a_node11"><a xlink:href="lmic__compliance_8h.html" target="_top" xlink:title=" ">
<polygon fill="white" stroke="black" points="294.5,-224.5 294.5,-243.5 402.5,-243.5 402.5,-224.5 294.5,-224.5"/>
<text text-anchor="middle" x="348.5" y="-231.5" font-family="Helvetica,sans-Serif" font-size="10.00">lmic_compliance.h</text>
</a>
</g>
</g>
<!-- Node7&#45;&gt;Node11 -->
<g id="edge11" class="edge">
<title>Node7&#45;&gt;Node11</title>
<path fill="none" stroke="midnightblue" d="M320.52,-271.86C327.62,-262.5 336.1,-251.33 341.86,-243.75"/>
<polygon fill="midnightblue" stroke="midnightblue" points="317.53,-270 314.27,-280.08 323.11,-274.24 317.53,-270"/>
</g>
<!-- Node12 -->
<g id="node12" class="node">
<title>Node12</title>
<g id="a_node12"><a xlink:href="lmic__eu__like_8h.html" target="_top" xlink:title=" ">
<polygon fill="white" stroke="black" points="467.5,-224.5 467.5,-243.5 553.5,-243.5 553.5,-224.5 467.5,-224.5"/>
<text text-anchor="middle" x="510.5" y="-231.5" font-family="Helvetica,sans-Serif" font-size="10.00">lmic_eu_like.h</text>
</a>
</g>
</g>
<!-- Node7&#45;&gt;Node12 -->
<g id="edge12" class="edge">
<title>Node7&#45;&gt;Node12</title>
<path fill="none" stroke="midnightblue" d="M341.27,-280.02C379.36,-269.89 440.86,-253.52 478.3,-243.57"/>
<polygon fill="midnightblue" stroke="midnightblue" points="339.95,-276.75 331.18,-282.7 341.75,-283.51 339.95,-276.75"/>
</g>
<!-- Node9 -->
<g id="node9" class="node">
<title>Node9</title>
<g id="a_node9"><a xlink:href="lmic_8h.html" target="_top" xlink:title=" ">
<polygon fill="white" stroke="black" points="243,-0.5 243,-19.5 290,-19.5 290,-0.5 243,-0.5"/>
<text text-anchor="middle" x="266.5" y="-7.5" font-family="Helvetica,sans-Serif" font-size="10.00">lmic.h</text>
</a>
</g>
</g>
<!-- Node8&#45;&gt;Node9 -->
<g id="edge8" class="edge">
<title>Node8&#45;&gt;Node9</title>
<path fill="none" stroke="midnightblue" d="M266.5,-45.8C266.5,-36.91 266.5,-26.78 266.5,-19.75"/>
<polygon fill="midnightblue" stroke="midnightblue" points="263,-46.08 266.5,-56.08 270,-46.08 263,-46.08"/>
</g>
<!-- Node10&#45;&gt;Node8 -->
<g id="edge10" class="edge">
<title>Node10&#45;&gt;Node8</title>
<path fill="none" stroke="midnightblue" d="M293.12,-103.86C286.36,-94.5 278.29,-83.33 272.82,-75.75"/>
<polygon fill="midnightblue" stroke="midnightblue" points="290.37,-106.03 299.06,-112.08 296.04,-101.93 290.37,-106.03"/>
</g>
<!-- Node13 -->
<g id="node13" class="node">
<title>Node13</title>
<g id="a_node13"><a xlink:href="lmic__bandplan__as923_8h.html" target="_top" xlink:title=" ">
<polygon fill="white" stroke="black" points="295,-168.5 295,-187.5 426,-187.5 426,-168.5 295,-168.5"/>
<text text-anchor="middle" x="360.5" y="-175.5" font-family="Helvetica,sans-Serif" font-size="10.00">lmic_bandplan_as923.h</text>
</a>
</g>
</g>
<!-- Node12&#45;&gt;Node13 -->
<g id="edge13" class="edge">
<title>Node12&#45;&gt;Node13</title>
<path fill="none" stroke="midnightblue" d="M477.28,-221.04C449.05,-210.88 409.24,-196.55 384.16,-187.52"/>
<polygon fill="midnightblue" stroke="midnightblue" points="476.14,-224.35 486.73,-224.44 478.51,-217.76 476.14,-224.35"/>
</g>
<!-- Node14 -->
<g id="node14" class="node">
<title>Node14</title>
<g id="a_node14"><a xlink:href="lmic__bandplan__eu868_8h.html" target="_top" xlink:title=" ">
<polygon fill="white" stroke="black" points="444.5,-168.5 444.5,-187.5 576.5,-187.5 576.5,-168.5 444.5,-168.5"/>
<text text-anchor="middle" x="510.5" y="-175.5" font-family="Helvetica,sans-Serif" font-size="10.00">lmic_bandplan_eu868.h</text>
</a>
</g>
</g>
<!-- Node12&#45;&gt;Node14 -->
<g id="edge14" class="edge">
<title>Node12&#45;&gt;Node14</title>
<path fill="none" stroke="midnightblue" d="M510.5,-213.8C510.5,-204.91 510.5,-194.78 510.5,-187.75"/>
<polygon fill="midnightblue" stroke="midnightblue" points="507,-214.08 510.5,-224.08 514,-214.08 507,-214.08"/>
</g>
<!-- Node15 -->
<g id="node15" class="node">
<title>Node15</title>
<g id="a_node15"><a xlink:href="lmic__bandplan__in866_8h.html" target="_top" xlink:title=" ">
<polygon fill="white" stroke="black" points="595,-168.5 595,-187.5 724,-187.5 724,-168.5 595,-168.5"/>
<text text-anchor="middle" x="659.5" y="-175.5" font-family="Helvetica,sans-Serif" font-size="10.00">lmic_bandplan_in866.h</text>
</a>
</g>
</g>
<!-- Node12&#45;&gt;Node15 -->
<g id="edge16" class="edge">
<title>Node12&#45;&gt;Node15</title>
<path fill="none" stroke="midnightblue" d="M543.87,-220.91C571.88,-210.75 611.2,-196.51 636,-187.52"/>
<polygon fill="midnightblue" stroke="midnightblue" points="542.32,-217.75 534.11,-224.44 544.7,-224.33 542.32,-217.75"/>
</g>
<!-- Node16 -->
<g id="node16" class="node">
<title>Node16</title>
<g id="a_node16"><a xlink:href="lmic__bandplan__kr920_8h.html" target="_top" xlink:title=" ">
<polygon fill="white" stroke="black" points="742.5,-168.5 742.5,-187.5 872.5,-187.5 872.5,-168.5 742.5,-168.5"/>
<text text-anchor="middle" x="807.5" y="-175.5" font-family="Helvetica,sans-Serif" font-size="10.00">lmic_bandplan_kr920.h</text>
</a>
</g>
</g>
<!-- Node12&#45;&gt;Node16 -->
<g id="edge17" class="edge">
<title>Node12&#45;&gt;Node16</title>
<path fill="none" stroke="midnightblue" d="M563.75,-223.32C619.68,-213.15 706.8,-197.31 760.33,-187.58"/>
<polygon fill="midnightblue" stroke="midnightblue" points="562.9,-219.92 553.69,-225.15 564.15,-226.8 562.9,-219.92"/>
</g>
<!-- Node14&#45;&gt;Node10 -->
<g id="edge15" class="edge">
<title>Node14&#45;&gt;Node10</title>
<path fill="none" stroke="midnightblue" d="M468.09,-165.83C429.39,-155.63 373.01,-140.78 337.83,-131.52"/>
<polygon fill="midnightblue" stroke="midnightblue" points="467.46,-169.28 478.02,-168.44 469.24,-162.51 467.46,-169.28"/>
</g>
</g>
</svg>
