<?xml version="1.0" encoding="UTF-8" standalone="no"?>
<!DOCTYPE svg PUBLIC "-//W3C//DTD SVG 1.1//EN"
 "http://www.w3.org/Graphics/SVG/1.1/DTD/svg11.dtd">
<!-- Generated by graphviz version 2.43.0 (0)
 -->
<!-- Title: lmic_compliance.h Pages: 1 -->
<svg width="560pt" height="308pt"
 viewBox="0.00 0.00 560.00 308.00" xmlns="http://www.w3.org/2000/svg" xmlns:xlink="http://www.w3.org/1999/xlink">
<g id="graph0" class="graph" transform="scale(1 1) rotate(0) translate(4 304)">
<title>lmic_compliance.h</title>
<polygon fill="white" stroke="transparent" points="-4,4 -4,-304 556,-304 556,4 -4,4"/>
<!-- Node1 -->
<g id="node1" class="node">
<title>Node1</title>
<g id="a_node1"><a xlink:title=" ">
<polygon fill="#bfbfbf" stroke="black" points="408,-280.5 408,-299.5 516,-299.5 516,-280.5 408,-280.5"/>
<text text-anchor="middle" x="462" y="-287.5" font-family="Helvetica,sans-Serif" font-size="10.00">lmic_compliance.h</text>
</a>
</g>
</g>
<!-- Node2 -->
<g id="node2" class="node">
<title>Node2</title>
<g id="a_node2"><a xlink:href="lmic_2lmic_8h.html" target="_top" xlink:title="LMIC API.">
<polygon fill="white" stroke="black" points="153.5,-224.5 153.5,-243.5 200.5,-243.5 200.5,-224.5 153.5,-224.5"/>
<text text-anchor="middle" x="177" y="-231.5" font-family="Helvetica,sans-Serif" font-size="10.00">lmic.h</text>
</a>
</g>
</g>
<!-- Node1&#45;&gt;Node2 -->
<g id="edge1" class="edge">
<title>Node1&#45;&gt;Node2</title>
<path fill="none" stroke="midnightblue" d="M416.84,-280.44C359.43,-269.56 261.63,-251.03 210.46,-241.34"/>
<polygon fill="midnightblue" stroke="midnightblue" points="211.05,-237.89 200.57,-239.47 209.75,-244.77 211.05,-237.89"/>
</g>
<!-- Node9 -->
<g id="node9" class="node">
<title>Node9</title>
<g id="a_node9"><a xlink:title=" ">
<polygon fill="white" stroke="#bfbfbf" points="313.5,-0.5 313.5,-19.5 366.5,-19.5 366.5,-0.5 313.5,-0.5"/>
<text text-anchor="middle" x="340" y="-7.5" font-family="Helvetica,sans-Serif" font-size="10.00">stdint.h</text>
</a>
</g>
</g>
<!-- Node1&#45;&gt;Node9 -->
<g id="edge17" class="edge">
<title>Node1&#45;&gt;Node9</title>
<path fill="none" stroke="midnightblue" d="M462,-280.44C462,-261.94 462,-216.81 462,-179 462,-179 462,-179 462,-121 462,-90.9 462.88,-78.6 443,-56 425.78,-36.44 398.5,-25.04 376.34,-18.61"/>
<polygon fill="midnightblue" stroke="midnightblue" points="377.13,-15.2 366.57,-15.99 375.32,-21.96 377.13,-15.2"/>
</g>
<!-- Node15 -->
<g id="node15" class="node">
<title>Node15</title>
<g id="a_node15"><a xlink:title=" ">
<polygon fill="white" stroke="#bfbfbf" points="490,-224.5 490,-243.5 552,-243.5 552,-224.5 490,-224.5"/>
<text text-anchor="middle" x="521" y="-231.5" font-family="Helvetica,sans-Serif" font-size="10.00">stdbool.h</text>
</a>
</g>
</g>
<!-- Node1&#45;&gt;Node15 -->
<g id="edge16" class="edge">
<title>Node1&#45;&gt;Node15</title>
<path fill="none" stroke="midnightblue" d="M471.48,-280.32C480.2,-272.34 493.34,-260.31 503.9,-250.65"/>
<polygon fill="midnightblue" stroke="midnightblue" points="506.33,-253.17 511.35,-243.83 501.61,-248 506.33,-253.17"/>
</g>
<!-- Node3 -->
<g id="node3" class="node">
<title>Node3</title>
<g id="a_node3"><a xlink:href="oslmic_8h.html" target="_top" xlink:title=" ">
<polygon fill="white" stroke="black" points="193,-168.5 193,-187.5 251,-187.5 251,-168.5 193,-168.5"/>
<text text-anchor="middle" x="222" y="-175.5" font-family="Helvetica,sans-Serif" font-size="10.00">oslmic.h</text>
</a>
</g>
</g>
<!-- Node2&#45;&gt;Node3 -->
<g id="edge2" class="edge">
<title>Node2&#45;&gt;Node3</title>
<path fill="none" stroke="midnightblue" d="M184.43,-224.08C190.85,-216.38 200.31,-205.03 208.12,-195.65"/>
<polygon fill="midnightblue" stroke="midnightblue" points="210.99,-197.67 214.71,-187.75 205.62,-193.19 210.99,-197.67"/>
</g>
<!-- Node13 -->
<g id="node13" class="node">
<title>Node13</title>
<g id="a_node13"><a xlink:href="lorabase_8h.html" target="_top" xlink:title=" ">
<polygon fill="white" stroke="black" points="0,-168.5 0,-187.5 68,-187.5 68,-168.5 0,-168.5"/>
<text text-anchor="middle" x="34" y="-175.5" font-family="Helvetica,sans-Serif" font-size="10.00">lorabase.h</text>
</a>
</g>
</g>
<!-- Node2&#45;&gt;Node13 -->
<g id="edge14" class="edge">
<title>Node2&#45;&gt;Node13</title>
<path fill="none" stroke="midnightblue" d="M154.34,-224.44C130.6,-215.48 93.09,-201.31 66.26,-191.18"/>
<polygon fill="midnightblue" stroke="midnightblue" points="67.14,-187.77 56.55,-187.52 64.67,-194.32 67.14,-187.77"/>
</g>
<!-- Node14 -->
<g id="node14" class="node">
<title>Node14</title>
<g id="a_node14"><a xlink:href="lmic__compat_8h.html" target="_top" xlink:title=" ">
<polygon fill="white" stroke="black" points="86.5,-168.5 86.5,-187.5 175.5,-187.5 175.5,-168.5 86.5,-168.5"/>
<text text-anchor="middle" x="131" y="-175.5" font-family="Helvetica,sans-Serif" font-size="10.00">lmic_compat.h</text>
</a>
</g>
</g>
<!-- Node2&#45;&gt;Node14 -->
<g id="edge15" class="edge">
<title>Node2&#45;&gt;Node14</title>
<path fill="none" stroke="midnightblue" d="M169.4,-224.08C162.77,-216.3 152.98,-204.8 144.94,-195.37"/>
<polygon fill="midnightblue" stroke="midnightblue" points="147.6,-193.09 138.45,-187.75 142.27,-197.63 147.6,-193.09"/>
</g>
<!-- Node4 -->
<g id="node4" class="node">
<title>Node4</title>
<g id="a_node4"><a xlink:href="config_8h.html" target="_top" xlink:title=" ">
<polygon fill="white" stroke="black" points="360.5,-112.5 360.5,-131.5 415.5,-131.5 415.5,-112.5 360.5,-112.5"/>
<text text-anchor="middle" x="388" y="-119.5" font-family="Helvetica,sans-Serif" font-size="10.00">config.h</text>
</a>
</g>
</g>
<!-- Node3&#45;&gt;Node4 -->
<g id="edge3" class="edge">
<title>Node3&#45;&gt;Node4</title>
<path fill="none" stroke="midnightblue" d="M248.3,-168.44C276.35,-159.32 320.94,-144.81 352.18,-134.65"/>
<polygon fill="midnightblue" stroke="midnightblue" points="353.39,-137.94 361.82,-131.52 351.23,-131.28 353.39,-137.94"/>
</g>
<!-- Node6 -->
<g id="node6" class="node">
<title>Node6</title>
<g id="a_node6"><a xlink:title=" ">
<polygon fill="white" stroke="#bfbfbf" points="2,-112.5 2,-131.5 52,-131.5 52,-112.5 2,-112.5"/>
<text text-anchor="middle" x="27" y="-119.5" font-family="Helvetica,sans-Serif" font-size="10.00">stdio.h</text>
</a>
</g>
</g>
<!-- Node3&#45;&gt;Node6 -->
<g id="edge5" class="edge">
<title>Node3&#45;&gt;Node6</title>
<path fill="none" stroke="midnightblue" d="M192.81,-168.92C157.84,-159.23 99.33,-143.03 61.99,-132.69"/>
<polygon fill="midnightblue" stroke="midnightblue" points="62.62,-129.23 52.05,-129.94 60.75,-135.98 62.62,-129.23"/>
</g>
<!-- Node7 -->
<g id="node7" class="node">
<title>Node7</title>
<g id="a_node7"><a xlink:href="lmic__env_8h.html" target="_top" xlink:title=" ">
<polygon fill="white" stroke="black" points="75.5,-56.5 75.5,-75.5 144.5,-75.5 144.5,-56.5 75.5,-56.5"/>
<text text-anchor="middle" x="110" y="-63.5" font-family="Helvetica,sans-Serif" font-size="10.00">lmic_env.h</text>
</a>
</g>
</g>
<!-- Node3&#45;&gt;Node7 -->
<g id="edge6" class="edge">
<title>Node3&#45;&gt;Node7</title>
<path fill="none" stroke="midnightblue" d="M193.9,-168.49C159.65,-157.85 105.6,-140.03 100,-132 90.44,-118.28 95.09,-98.99 100.82,-84.98"/>
<polygon fill="midnightblue" stroke="midnightblue" points="104.01,-86.43 105,-75.88 97.65,-83.51 104.01,-86.43"/>
</g>
<!-- Node8 -->
<g id="node8" class="node">
<title>Node8</title>
<g id="a_node8"><a xlink:href="oslmic__types_8h.html" target="_top" xlink:title=" ">
<polygon fill="white" stroke="black" points="174,-56.5 174,-75.5 264,-75.5 264,-56.5 174,-56.5"/>
<text text-anchor="middle" x="219" y="-63.5" font-family="Helvetica,sans-Serif" font-size="10.00">oslmic_types.h</text>
</a>
</g>
</g>
<!-- Node3&#45;&gt;Node8 -->
<g id="edge7" class="edge">
<title>Node3&#45;&gt;Node8</title>
<path fill="none" stroke="midnightblue" d="M224.45,-168.17C227.61,-155.67 232.42,-132.09 230,-112 228.93,-103.11 226.71,-93.43 224.54,-85.34"/>
<polygon fill="midnightblue" stroke="midnightblue" points="227.84,-84.17 221.73,-75.51 221.11,-86.09 227.84,-84.17"/>
</g>
<!-- Node10 -->
<g id="node10" class="node">
<title>Node10</title>
<g id="a_node10"><a xlink:title=" ">
<polygon fill="white" stroke="#bfbfbf" points="167.5,-112.5 167.5,-131.5 220.5,-131.5 220.5,-112.5 167.5,-112.5"/>
<text text-anchor="middle" x="194" y="-119.5" font-family="Helvetica,sans-Serif" font-size="10.00">string.h</text>
</a>
</g>
</g>
<!-- Node3&#45;&gt;Node10 -->
<g id="edge9" class="edge">
<title>Node3&#45;&gt;Node10</title>
<path fill="none" stroke="midnightblue" d="M217.38,-168.08C213.54,-160.69 207.98,-149.95 203.24,-140.81"/>
<polygon fill="midnightblue" stroke="midnightblue" points="206.25,-139.02 198.54,-131.75 200.03,-142.24 206.25,-139.02"/>
</g>
<!-- Node11 -->
<g id="node11" class="node">
<title>Node11</title>
<g id="a_node11"><a xlink:href="lmic_2hal_8h.html" target="_top" xlink:title=" ">
<polygon fill="white" stroke="black" points="108.5,-112.5 108.5,-131.5 149.5,-131.5 149.5,-112.5 108.5,-112.5"/>
<text text-anchor="middle" x="129" y="-119.5" font-family="Helvetica,sans-Serif" font-size="10.00">hal.h</text>
</a>
</g>
</g>
<!-- Node3&#45;&gt;Node11 -->
<g id="edge10" class="edge">
<title>Node3&#45;&gt;Node11</title>
<path fill="none" stroke="midnightblue" d="M207.06,-168.32C192.41,-159.82 169.87,-146.73 152.76,-136.8"/>
<polygon fill="midnightblue" stroke="midnightblue" points="154.31,-133.65 143.9,-131.65 150.8,-139.7 154.31,-133.65"/>
</g>
<!-- Node12 -->
<g id="node12" class="node">
<title>Node12</title>
<g id="a_node12"><a xlink:title=" ">
<polygon fill="white" stroke="#bfbfbf" points="277.5,-112.5 277.5,-131.5 342.5,-131.5 342.5,-112.5 277.5,-112.5"/>
<text text-anchor="middle" x="310" y="-119.5" font-family="Helvetica,sans-Serif" font-size="10.00">inttypes.h</text>
</a>
</g>
</g>
<!-- Node3&#45;&gt;Node12 -->
<g id="edge13" class="edge">
<title>Node3&#45;&gt;Node12</title>
<path fill="none" stroke="midnightblue" d="M236.14,-168.32C249.87,-159.9 270.94,-146.97 287.06,-137.07"/>
<polygon fill="midnightblue" stroke="midnightblue" points="289.2,-139.87 295.9,-131.65 285.54,-133.9 289.2,-139.87"/>
</g>
<!-- Node5 -->
<g id="node5" class="node">
<title>Node5</title>
<g id="a_node5"><a xlink:href="lmic__config__preconditions_8h.html" target="_top" xlink:title=" ">
<polygon fill="white" stroke="black" points="282,-56.5 282,-75.5 434,-75.5 434,-56.5 282,-56.5"/>
<text text-anchor="middle" x="358" y="-63.5" font-family="Helvetica,sans-Serif" font-size="10.00">lmic_config_preconditions.h</text>
</a>
</g>
</g>
<!-- Node4&#45;&gt;Node5 -->
<g id="edge4" class="edge">
<title>Node4&#45;&gt;Node5</title>
<path fill="none" stroke="midnightblue" d="M383.05,-112.08C378.9,-104.61 372.85,-93.72 367.73,-84.52"/>
<polygon fill="midnightblue" stroke="midnightblue" points="370.78,-82.79 362.86,-75.75 364.66,-86.19 370.78,-82.79"/>
</g>
<!-- Node8&#45;&gt;Node9 -->
<g id="edge8" class="edge">
<title>Node8&#45;&gt;Node9</title>
<path fill="none" stroke="midnightblue" d="M238.17,-56.44C257.91,-47.64 288.89,-33.81 311.49,-23.72"/>
<polygon fill="midnightblue" stroke="midnightblue" points="313.21,-26.79 320.92,-19.52 310.36,-20.4 313.21,-26.79"/>
</g>
<!-- Node11&#45;&gt;Node7 -->
<g id="edge12" class="edge">
<title>Node11&#45;&gt;Node7</title>
<path fill="none" stroke="midnightblue" d="M125.86,-112.08C123.32,-104.85 119.64,-94.41 116.47,-85.4"/>
<polygon fill="midnightblue" stroke="midnightblue" points="119.7,-84.02 113.08,-75.75 113.1,-86.35 119.7,-84.02"/>
</g>
<!-- Node11&#45;&gt;Node8 -->
<g id="edge11" class="edge">
<title>Node11&#45;&gt;Node8</title>
<path fill="none" stroke="midnightblue" d="M143.46,-112.32C157.5,-103.9 179.05,-90.97 195.54,-81.07"/>
<polygon fill="midnightblue" stroke="midnightblue" points="197.8,-83.8 204.58,-75.65 194.2,-77.8 197.8,-83.8"/>
</g>
</g>
</svg>
