<?xml version="1.0" encoding="UTF-8" standalone="no"?>
<!DOCTYPE svg PUBLIC "-//W3C//DTD SVG 1.1//EN"
 "http://www.w3.org/Graphics/SVG/1.1/DTD/svg11.dtd">
<!-- Generated by graphviz version 2.43.0 (0)
 -->
<!-- Title: lorawan_source_impl.h Pages: 1 -->
<svg width="750pt" height="207pt"
 viewBox="0.00 0.00 750.00 207.00" xmlns="http://www.w3.org/2000/svg" xmlns:xlink="http://www.w3.org/1999/xlink">
<g id="graph0" class="graph" transform="scale(1 1) rotate(0) translate(4 203)">
<title>lorawan_source_impl.h</title>
<polygon fill="white" stroke="transparent" points="-4,4 -4,-203 746,-203 746,4 -4,4"/>
<!-- Node1 -->
<g id="node1" class="node">
<title>Node1</title>
<g id="a_node1"><a xlink:title=" ">
<polygon fill="#bfbfbf" stroke="black" points="353.5,-179.5 353.5,-198.5 482.5,-198.5 482.5,-179.5 353.5,-179.5"/>
<text text-anchor="middle" x="418" y="-186.5" font-family="Helvetica,sans-Serif" font-size="10.00">lorawan_source_impl.h</text>
</a>
</g>
</g>
<!-- Node2 -->
<g id="node2" class="node">
<title>Node2</title>
<g id="a_node2"><a xlink:href="lorawan__source_8h.html" target="_top" xlink:title=" ">
<polygon fill="white" stroke="black" points="64.5,-112.5 64.5,-142.5 207.5,-142.5 207.5,-112.5 64.5,-112.5"/>
<text text-anchor="start" x="72.5" y="-130.5" font-family="Helvetica,sans-Serif" font-size="10.00">gnuradio/lorawan/lorawan</text>
<text text-anchor="middle" x="136" y="-119.5" font-family="Helvetica,sans-Serif" font-size="10.00">_source.h</text>
</a>
</g>
</g>
<!-- Node1&#45;&gt;Node2 -->
<g id="edge1" class="edge">
<title>Node1&#45;&gt;Node2</title>
<path fill="none" stroke="midnightblue" d="M377.6,-179.48C334.67,-170.42 265.8,-155.89 212.55,-144.65"/>
<polygon fill="midnightblue" stroke="midnightblue" points="212.97,-141.16 202.46,-142.52 211.52,-148.01 212.97,-141.16"/>
</g>
<!-- Node6 -->
<g id="node6" class="node">
<title>Node6</title>
<g id="a_node6"><a xlink:title=" ">
<polygon fill="white" stroke="#bfbfbf" points="226,-118 226,-137 274,-137 274,-118 226,-118"/>
<text text-anchor="middle" x="250" y="-125" font-family="Helvetica,sans-Serif" font-size="10.00">thread</text>
</a>
</g>
</g>
<!-- Node1&#45;&gt;Node6 -->
<g id="edge5" class="edge">
<title>Node1&#45;&gt;Node6</title>
<path fill="none" stroke="midnightblue" d="M389.81,-179.44C362.31,-170.89 319.42,-157.04 283,-143 281.39,-142.38 279.75,-141.73 278.1,-141.05"/>
<polygon fill="midnightblue" stroke="midnightblue" points="279.3,-137.76 268.72,-137.08 276.57,-144.21 279.3,-137.76"/>
</g>
<!-- Node7 -->
<g id="node7" class="node">
<title>Node7</title>
<g id="a_node7"><a xlink:title=" ">
<polygon fill="white" stroke="#bfbfbf" points="292,-118 292,-137 348,-137 348,-118 292,-118"/>
<text text-anchor="middle" x="320" y="-125" font-family="Helvetica,sans-Serif" font-size="10.00">iomanip</text>
</a>
</g>
</g>
<!-- Node1&#45;&gt;Node7 -->
<g id="edge6" class="edge">
<title>Node1&#45;&gt;Node7</title>
<path fill="none" stroke="midnightblue" d="M403.96,-179.48C387.95,-169.75 361.55,-153.73 342.63,-142.24"/>
<polygon fill="midnightblue" stroke="midnightblue" points="344.38,-139.21 334.01,-137.01 340.75,-145.19 344.38,-139.21"/>
</g>
<!-- Node8 -->
<g id="node8" class="node">
<title>Node8</title>
<g id="a_node8"><a xlink:title=" ">
<polygon fill="white" stroke="#bfbfbf" points="366,-118 366,-137 404,-137 404,-118 366,-118"/>
<text text-anchor="middle" x="385" y="-125" font-family="Helvetica,sans-Serif" font-size="10.00">map</text>
</a>
</g>
</g>
<!-- Node1&#45;&gt;Node8 -->
<g id="edge7" class="edge">
<title>Node1&#45;&gt;Node8</title>
<path fill="none" stroke="midnightblue" d="M413.27,-179.48C408.42,-170.73 400.73,-156.87 394.6,-145.81"/>
<polygon fill="midnightblue" stroke="midnightblue" points="397.63,-144.06 389.72,-137.01 391.51,-147.45 397.63,-144.06"/>
</g>
<!-- Node9 -->
<g id="node9" class="node">
<title>Node9</title>
<g id="a_node9"><a xlink:title=" ">
<polygon fill="white" stroke="#bfbfbf" points="422,-118 422,-137 482,-137 482,-118 422,-118"/>
<text text-anchor="middle" x="452" y="-125" font-family="Helvetica,sans-Serif" font-size="10.00">iostream</text>
</a>
</g>
</g>
<!-- Node1&#45;&gt;Node9 -->
<g id="edge8" class="edge">
<title>Node1&#45;&gt;Node9</title>
<path fill="none" stroke="midnightblue" d="M422.87,-179.48C427.87,-170.73 435.79,-156.87 442.11,-145.81"/>
<polygon fill="midnightblue" stroke="midnightblue" points="445.22,-147.43 447.14,-137.01 439.14,-143.96 445.22,-147.43"/>
</g>
<!-- Node10 -->
<g id="node10" class="node">
<title>Node10</title>
<g id="a_node10"><a xlink:title=" ">
<polygon fill="white" stroke="#bfbfbf" points="500,-118 500,-137 556,-137 556,-118 500,-118"/>
<text text-anchor="middle" x="528" y="-125" font-family="Helvetica,sans-Serif" font-size="10.00">unistd.h</text>
</a>
</g>
</g>
<!-- Node1&#45;&gt;Node10 -->
<g id="edge9" class="edge">
<title>Node1&#45;&gt;Node10</title>
<path fill="none" stroke="midnightblue" d="M433.76,-179.48C451.98,-169.62 482.17,-153.29 503.47,-141.77"/>
<polygon fill="midnightblue" stroke="midnightblue" points="505.14,-144.85 512.27,-137.01 501.81,-138.69 505.14,-144.85"/>
</g>
<!-- Node11 -->
<g id="node11" class="node">
<title>Node11</title>
<g id="a_node11"><a xlink:title=" ">
<polygon fill="white" stroke="#bfbfbf" points="574.5,-118 574.5,-137 651.5,-137 651.5,-118 574.5,-118"/>
<text text-anchor="middle" x="613" y="-125" font-family="Helvetica,sans-Serif" font-size="10.00">sys/socket.h</text>
</a>
</g>
</g>
<!-- Node1&#45;&gt;Node11 -->
<g id="edge10" class="edge">
<title>Node1&#45;&gt;Node11</title>
<path fill="none" stroke="midnightblue" d="M445.94,-179.48C479.97,-169.09 537.58,-151.51 575.46,-139.95"/>
<polygon fill="midnightblue" stroke="midnightblue" points="576.57,-143.28 585.11,-137.01 574.53,-136.58 576.57,-143.28"/>
</g>
<!-- Node12 -->
<g id="node12" class="node">
<title>Node12</title>
<g id="a_node12"><a xlink:title=" ">
<polygon fill="white" stroke="#bfbfbf" points="670,-118 670,-137 742,-137 742,-118 670,-118"/>
<text text-anchor="middle" x="706" y="-125" font-family="Helvetica,sans-Serif" font-size="10.00">netinet/in.h</text>
</a>
</g>
</g>
<!-- Node1&#45;&gt;Node12 -->
<g id="edge11" class="edge">
<title>Node1&#45;&gt;Node12</title>
<path fill="none" stroke="midnightblue" d="M475.9,-179.43C525.41,-171.59 598.39,-158.81 661,-143 664.45,-142.13 668.02,-141.14 671.57,-140.09"/>
<polygon fill="midnightblue" stroke="midnightblue" points="672.89,-143.35 681.41,-137.05 670.82,-136.66 672.89,-143.35"/>
</g>
<!-- Node3 -->
<g id="node3" class="node">
<title>Node3</title>
<g id="a_node3"><a xlink:href="api_8h.html" target="_top" xlink:title=" ">
<polygon fill="white" stroke="black" points="0,-56.5 0,-75.5 128,-75.5 128,-56.5 0,-56.5"/>
<text text-anchor="middle" x="64" y="-63.5" font-family="Helvetica,sans-Serif" font-size="10.00">gnuradio/lorawan/api.h</text>
</a>
</g>
</g>
<!-- Node2&#45;&gt;Node3 -->
<g id="edge2" class="edge">
<title>Node2&#45;&gt;Node3</title>
<path fill="none" stroke="midnightblue" d="M118.94,-112.4C107.94,-103.31 93.63,-91.49 82.38,-82.19"/>
<polygon fill="midnightblue" stroke="midnightblue" points="84.41,-79.33 74.48,-75.66 79.96,-84.73 84.41,-79.33"/>
</g>
<!-- Node5 -->
<g id="node5" class="node">
<title>Node5</title>
<g id="a_node5"><a xlink:title=" ">
<polygon fill="white" stroke="#bfbfbf" points="146.5,-56.5 146.5,-75.5 271.5,-75.5 271.5,-56.5 146.5,-56.5"/>
<text text-anchor="middle" x="209" y="-63.5" font-family="Helvetica,sans-Serif" font-size="10.00">gnuradio/sync_block.h</text>
</a>
</g>
</g>
<!-- Node2&#45;&gt;Node5 -->
<g id="edge4" class="edge">
<title>Node2&#45;&gt;Node5</title>
<path fill="none" stroke="midnightblue" d="M153.3,-112.4C164.45,-103.31 178.95,-91.49 190.36,-82.19"/>
<polygon fill="midnightblue" stroke="midnightblue" points="192.84,-84.69 198.38,-75.66 188.42,-79.26 192.84,-84.69"/>
</g>
<!-- Node4 -->
<g id="node4" class="node">
<title>Node4</title>
<g id="a_node4"><a xlink:title=" ">
<polygon fill="white" stroke="#bfbfbf" points="4.5,-0.5 4.5,-19.5 123.5,-19.5 123.5,-0.5 4.5,-0.5"/>
<text text-anchor="middle" x="64" y="-7.5" font-family="Helvetica,sans-Serif" font-size="10.00">gnuradio/attributes.h</text>
</a>
</g>
</g>
<!-- Node3&#45;&gt;Node4 -->
<g id="edge3" class="edge">
<title>Node3&#45;&gt;Node4</title>
<path fill="none" stroke="midnightblue" d="M64,-56.08C64,-49.01 64,-38.86 64,-29.99"/>
<polygon fill="midnightblue" stroke="midnightblue" points="67.5,-29.75 64,-19.75 60.5,-29.75 67.5,-29.75"/>
</g>
</g>
</svg>
