<?xml version="1.0" encoding="UTF-8" standalone="no"?>
<!DOCTYPE svg PUBLIC "-//W3C//DTD SVG 1.1//EN"
 "http://www.w3.org/Graphics/SVG/1.1/DTD/svg11.dtd">
<!-- Generated by graphviz version 2.43.0 (0)
 -->
<!-- Title: lorabase.h Pages: 1 -->
<svg width="659pt" height="364pt"
 viewBox="0.00 0.00 658.50 364.00" xmlns="http://www.w3.org/2000/svg" xmlns:xlink="http://www.w3.org/1999/xlink">
<g id="graph0" class="graph" transform="scale(1 1) rotate(0) translate(4 360)">
<title>lorabase.h</title>
<polygon fill="white" stroke="transparent" points="-4,4 -4,-360 654.5,-360 654.5,4 -4,4"/>
<!-- Node1 -->
<g id="node1" class="node">
<title>Node1</title>
<g id="a_node1"><a xlink:title=" ">
<polygon fill="#bfbfbf" stroke="black" points="51.5,-336.5 51.5,-355.5 119.5,-355.5 119.5,-336.5 51.5,-336.5"/>
<text text-anchor="middle" x="85.5" y="-343.5" font-family="Helvetica,sans-Serif" font-size="10.00">lorabase.h</text>
</a>
</g>
</g>
<!-- Node2 -->
<g id="node2" class="node">
<title>Node2</title>
<g id="a_node2"><a xlink:href="lmic_2lmic_8h.html" target="_top" xlink:title="LMIC API.">
<polygon fill="white" stroke="black" points="62,-280.5 62,-299.5 109,-299.5 109,-280.5 62,-280.5"/>
<text text-anchor="middle" x="85.5" y="-287.5" font-family="Helvetica,sans-Serif" font-size="10.00">lmic.h</text>
</a>
</g>
</g>
<!-- Node1&#45;&gt;Node2 -->
<g id="edge1" class="edge">
<title>Node1&#45;&gt;Node2</title>
<path fill="none" stroke="midnightblue" d="M85.5,-325.8C85.5,-316.91 85.5,-306.78 85.5,-299.75"/>
<polygon fill="midnightblue" stroke="midnightblue" points="82,-326.08 85.5,-336.08 89,-326.08 82,-326.08"/>
</g>
<!-- Node3 -->
<g id="node3" class="node">
<title>Node3</title>
<g id="a_node3"><a xlink:href="arduino__lmic_8h.html" target="_top" xlink:title=" ">
<polygon fill="white" stroke="black" points="0,-56.5 0,-75.5 89,-75.5 89,-56.5 0,-56.5"/>
<text text-anchor="middle" x="44.5" y="-63.5" font-family="Helvetica,sans-Serif" font-size="10.00">arduino_lmic.h</text>
</a>
</g>
</g>
<!-- Node2&#45;&gt;Node3 -->
<g id="edge2" class="edge">
<title>Node2&#45;&gt;Node3</title>
<path fill="none" stroke="midnightblue" d="M72.96,-272.23C67.3,-264.04 60.92,-253.86 56.5,-244 35.38,-196.87 32.45,-183.18 25.5,-132 24.3,-123.19 23.74,-120.71 25.5,-112 28.19,-98.7 34.94,-84.45 39.62,-75.63"/>
<polygon fill="midnightblue" stroke="midnightblue" points="70.21,-274.4 78.89,-280.49 75.9,-270.32 70.21,-274.4"/>
</g>
<!-- Node5 -->
<g id="node5" class="node">
<title>Node5</title>
<g id="a_node5"><a xlink:href="lmic__bandplan_8h.html" target="_top" xlink:title=" ">
<polygon fill="white" stroke="black" points="35,-112.5 35,-131.5 132,-131.5 132,-112.5 35,-112.5"/>
<text text-anchor="middle" x="83.5" y="-119.5" font-family="Helvetica,sans-Serif" font-size="10.00">lmic_bandplan.h</text>
</a>
</g>
</g>
<!-- Node2&#45;&gt;Node5 -->
<g id="edge4" class="edge">
<title>Node2&#45;&gt;Node5</title>
<path fill="none" stroke="midnightblue" d="M74.74,-271.69C70.32,-263.59 65.73,-253.64 63.5,-244 55.89,-211.09 56.49,-201.04 63.5,-168 66.34,-154.62 73.44,-140.39 78.37,-131.59"/>
<polygon fill="midnightblue" stroke="midnightblue" points="71.8,-273.6 79.86,-280.48 77.85,-270.08 71.8,-273.6"/>
</g>
<!-- Node6 -->
<g id="node6" class="node">
<title>Node6</title>
<g id="a_node6"><a xlink:href="lmic__compliance_8h.html" target="_top" xlink:title=" ">
<polygon fill="white" stroke="black" points="72.5,-224.5 72.5,-243.5 180.5,-243.5 180.5,-224.5 72.5,-224.5"/>
<text text-anchor="middle" x="126.5" y="-231.5" font-family="Helvetica,sans-Serif" font-size="10.00">lmic_compliance.h</text>
</a>
</g>
</g>
<!-- Node2&#45;&gt;Node6 -->
<g id="edge6" class="edge">
<title>Node2&#45;&gt;Node6</title>
<path fill="none" stroke="midnightblue" d="M98.52,-271.86C105.62,-262.5 114.1,-251.33 119.86,-243.75"/>
<polygon fill="midnightblue" stroke="midnightblue" points="95.53,-270 92.27,-280.08 101.11,-274.24 95.53,-270"/>
</g>
<!-- Node7 -->
<g id="node7" class="node">
<title>Node7</title>
<g id="a_node7"><a xlink:href="lmic__eu__like_8h.html" target="_top" xlink:title=" ">
<polygon fill="white" stroke="black" points="245.5,-224.5 245.5,-243.5 331.5,-243.5 331.5,-224.5 245.5,-224.5"/>
<text text-anchor="middle" x="288.5" y="-231.5" font-family="Helvetica,sans-Serif" font-size="10.00">lmic_eu_like.h</text>
</a>
</g>
</g>
<!-- Node2&#45;&gt;Node7 -->
<g id="edge7" class="edge">
<title>Node2&#45;&gt;Node7</title>
<path fill="none" stroke="midnightblue" d="M119.27,-280.02C157.36,-269.89 218.86,-253.52 256.3,-243.57"/>
<polygon fill="midnightblue" stroke="midnightblue" points="117.95,-276.75 109.18,-282.7 119.75,-283.51 117.95,-276.75"/>
</g>
<!-- Node4 -->
<g id="node4" class="node">
<title>Node4</title>
<g id="a_node4"><a xlink:href="lmic_8h.html" target="_top" xlink:title=" ">
<polygon fill="white" stroke="black" points="21,-0.5 21,-19.5 68,-19.5 68,-0.5 21,-0.5"/>
<text text-anchor="middle" x="44.5" y="-7.5" font-family="Helvetica,sans-Serif" font-size="10.00">lmic.h</text>
</a>
</g>
</g>
<!-- Node3&#45;&gt;Node4 -->
<g id="edge3" class="edge">
<title>Node3&#45;&gt;Node4</title>
<path fill="none" stroke="midnightblue" d="M44.5,-45.8C44.5,-36.91 44.5,-26.78 44.5,-19.75"/>
<polygon fill="midnightblue" stroke="midnightblue" points="41,-46.08 44.5,-56.08 48,-46.08 41,-46.08"/>
</g>
<!-- Node5&#45;&gt;Node3 -->
<g id="edge5" class="edge">
<title>Node5&#45;&gt;Node3</title>
<path fill="none" stroke="midnightblue" d="M71.12,-103.86C64.36,-94.5 56.29,-83.33 50.82,-75.75"/>
<polygon fill="midnightblue" stroke="midnightblue" points="68.37,-106.03 77.06,-112.08 74.04,-101.93 68.37,-106.03"/>
</g>
<!-- Node8 -->
<g id="node8" class="node">
<title>Node8</title>
<g id="a_node8"><a xlink:href="lmic__bandplan__as923_8h.html" target="_top" xlink:title=" ">
<polygon fill="white" stroke="black" points="73,-168.5 73,-187.5 204,-187.5 204,-168.5 73,-168.5"/>
<text text-anchor="middle" x="138.5" y="-175.5" font-family="Helvetica,sans-Serif" font-size="10.00">lmic_bandplan_as923.h</text>
</a>
</g>
</g>
<!-- Node7&#45;&gt;Node8 -->
<g id="edge8" class="edge">
<title>Node7&#45;&gt;Node8</title>
<path fill="none" stroke="midnightblue" d="M255.28,-221.04C227.05,-210.88 187.24,-196.55 162.16,-187.52"/>
<polygon fill="midnightblue" stroke="midnightblue" points="254.14,-224.35 264.73,-224.44 256.51,-217.76 254.14,-224.35"/>
</g>
<!-- Node9 -->
<g id="node9" class="node">
<title>Node9</title>
<g id="a_node9"><a xlink:href="lmic__bandplan__eu868_8h.html" target="_top" xlink:title=" ">
<polygon fill="white" stroke="black" points="222.5,-168.5 222.5,-187.5 354.5,-187.5 354.5,-168.5 222.5,-168.5"/>
<text text-anchor="middle" x="288.5" y="-175.5" font-family="Helvetica,sans-Serif" font-size="10.00">lmic_bandplan_eu868.h</text>
</a>
</g>
</g>
<!-- Node7&#45;&gt;Node9 -->
<g id="edge9" class="edge">
<title>Node7&#45;&gt;Node9</title>
<path fill="none" stroke="midnightblue" d="M288.5,-213.8C288.5,-204.91 288.5,-194.78 288.5,-187.75"/>
<polygon fill="midnightblue" stroke="midnightblue" points="285,-214.08 288.5,-224.08 292,-214.08 285,-214.08"/>
</g>
<!-- Node10 -->
<g id="node10" class="node">
<title>Node10</title>
<g id="a_node10"><a xlink:href="lmic__bandplan__in866_8h.html" target="_top" xlink:title=" ">
<polygon fill="white" stroke="black" points="373,-168.5 373,-187.5 502,-187.5 502,-168.5 373,-168.5"/>
<text text-anchor="middle" x="437.5" y="-175.5" font-family="Helvetica,sans-Serif" font-size="10.00">lmic_bandplan_in866.h</text>
</a>
</g>
</g>
<!-- Node7&#45;&gt;Node10 -->
<g id="edge11" class="edge">
<title>Node7&#45;&gt;Node10</title>
<path fill="none" stroke="midnightblue" d="M321.87,-220.91C349.88,-210.75 389.2,-196.51 414,-187.52"/>
<polygon fill="midnightblue" stroke="midnightblue" points="320.32,-217.75 312.11,-224.44 322.7,-224.33 320.32,-217.75"/>
</g>
<!-- Node11 -->
<g id="node11" class="node">
<title>Node11</title>
<g id="a_node11"><a xlink:href="lmic__bandplan__kr920_8h.html" target="_top" xlink:title=" ">
<polygon fill="white" stroke="black" points="520.5,-168.5 520.5,-187.5 650.5,-187.5 650.5,-168.5 520.5,-168.5"/>
<text text-anchor="middle" x="585.5" y="-175.5" font-family="Helvetica,sans-Serif" font-size="10.00">lmic_bandplan_kr920.h</text>
</a>
</g>
</g>
<!-- Node7&#45;&gt;Node11 -->
<g id="edge12" class="edge">
<title>Node7&#45;&gt;Node11</title>
<path fill="none" stroke="midnightblue" d="M341.75,-223.32C397.68,-213.15 484.8,-197.31 538.33,-187.58"/>
<polygon fill="midnightblue" stroke="midnightblue" points="340.9,-219.92 331.69,-225.15 342.15,-226.8 340.9,-219.92"/>
</g>
<!-- Node9&#45;&gt;Node5 -->
<g id="edge10" class="edge">
<title>Node9&#45;&gt;Node5</title>
<path fill="none" stroke="midnightblue" d="M246.09,-165.83C207.39,-155.63 151.01,-140.78 115.83,-131.52"/>
<polygon fill="midnightblue" stroke="midnightblue" points="245.46,-169.28 256.02,-168.44 247.24,-162.51 245.46,-169.28"/>
</g>
</g>
</svg>
