<?xml version="1.0" encoding="UTF-8" standalone="no"?>
<!DOCTYPE svg PUBLIC "-//W3C//DTD SVG 1.1//EN"
 "http://www.w3.org/Graphics/SVG/1.1/DTD/svg11.dtd">
<!-- Generated by graphviz version 2.43.0 (0)
 -->
<!-- Title: oslmic_types.h Pages: 1 -->
<svg width="677pt" height="476pt"
 viewBox="0.00 0.00 676.50 476.00" xmlns="http://www.w3.org/2000/svg" xmlns:xlink="http://www.w3.org/1999/xlink">
<g id="graph0" class="graph" transform="scale(1 1) rotate(0) translate(4 472)">
<title>oslmic_types.h</title>
<polygon fill="white" stroke="transparent" points="-4,4 -4,-472 672.5,-472 672.5,4 -4,4"/>
<!-- Node1 -->
<g id="node1" class="node">
<title>Node1</title>
<g id="a_node1"><a xlink:title=" ">
<polygon fill="#bfbfbf" stroke="black" points="34.5,-448.5 34.5,-467.5 124.5,-467.5 124.5,-448.5 34.5,-448.5"/>
<text text-anchor="middle" x="79.5" y="-455.5" font-family="Helvetica,sans-Serif" font-size="10.00">oslmic_types.h</text>
</a>
</g>
</g>
<!-- Node2 -->
<g id="node2" class="node">
<title>Node2</title>
<g id="a_node2"><a xlink:href="hal_2hal_8h.html" target="_top" xlink:title=" ">
<polygon fill="white" stroke="black" points="0,-392.5 0,-411.5 41,-411.5 41,-392.5 0,-392.5"/>
<text text-anchor="middle" x="20.5" y="-399.5" font-family="Helvetica,sans-Serif" font-size="10.00">hal.h</text>
</a>
</g>
</g>
<!-- Node1&#45;&gt;Node2 -->
<g id="edge1" class="edge">
<title>Node1&#45;&gt;Node2</title>
<path fill="none" stroke="midnightblue" d="M62.61,-441.54C52.09,-431.91 38.93,-419.87 30.15,-411.83"/>
<polygon fill="midnightblue" stroke="midnightblue" points="60.28,-444.15 70.02,-448.32 65.01,-438.99 60.28,-444.15"/>
</g>
<!-- Node3 -->
<g id="node3" class="node">
<title>Node3</title>
<g id="a_node3"><a xlink:href="lmic_2hal_8h.html" target="_top" xlink:title=" ">
<polygon fill="white" stroke="black" points="59,-392.5 59,-411.5 100,-411.5 100,-392.5 59,-392.5"/>
<text text-anchor="middle" x="79.5" y="-399.5" font-family="Helvetica,sans-Serif" font-size="10.00">hal.h</text>
</a>
</g>
</g>
<!-- Node1&#45;&gt;Node3 -->
<g id="edge2" class="edge">
<title>Node1&#45;&gt;Node3</title>
<path fill="none" stroke="midnightblue" d="M79.5,-437.8C79.5,-428.91 79.5,-418.78 79.5,-411.75"/>
<polygon fill="midnightblue" stroke="midnightblue" points="76,-438.08 79.5,-448.08 83,-438.08 76,-438.08"/>
</g>
<!-- Node4 -->
<g id="node4" class="node">
<title>Node4</title>
<g id="a_node4"><a xlink:href="oslmic_8h.html" target="_top" xlink:title=" ">
<polygon fill="white" stroke="black" points="74.5,-336.5 74.5,-355.5 132.5,-355.5 132.5,-336.5 74.5,-336.5"/>
<text text-anchor="middle" x="103.5" y="-343.5" font-family="Helvetica,sans-Serif" font-size="10.00">oslmic.h</text>
</a>
</g>
</g>
<!-- Node1&#45;&gt;Node4 -->
<g id="edge16" class="edge">
<title>Node1&#45;&gt;Node4</title>
<path fill="none" stroke="midnightblue" d="M93.49,-440.37C99.35,-432.34 105.49,-422.24 108.5,-412 114.25,-392.46 109.44,-368.26 106.08,-355.62"/>
<polygon fill="midnightblue" stroke="midnightblue" points="90.57,-438.42 87.17,-448.46 96.09,-442.73 90.57,-438.42"/>
</g>
<!-- Node3&#45;&gt;Node4 -->
<g id="edge3" class="edge">
<title>Node3&#45;&gt;Node4</title>
<path fill="none" stroke="midnightblue" d="M87.64,-382.69C91.68,-373.59 96.38,-363.01 99.61,-355.75"/>
<polygon fill="midnightblue" stroke="midnightblue" points="84.33,-381.52 83.46,-392.08 90.72,-384.37 84.33,-381.52"/>
</g>
<!-- Node5 -->
<g id="node5" class="node">
<title>Node5</title>
<g id="a_node5"><a xlink:href="lmic_2lmic_8h.html" target="_top" xlink:title="LMIC API.">
<polygon fill="white" stroke="black" points="80,-280.5 80,-299.5 127,-299.5 127,-280.5 80,-280.5"/>
<text text-anchor="middle" x="103.5" y="-287.5" font-family="Helvetica,sans-Serif" font-size="10.00">lmic.h</text>
</a>
</g>
</g>
<!-- Node4&#45;&gt;Node5 -->
<g id="edge4" class="edge">
<title>Node4&#45;&gt;Node5</title>
<path fill="none" stroke="midnightblue" d="M103.5,-325.8C103.5,-316.91 103.5,-306.78 103.5,-299.75"/>
<polygon fill="midnightblue" stroke="midnightblue" points="100,-326.08 103.5,-336.08 107,-326.08 100,-326.08"/>
</g>
<!-- Node6 -->
<g id="node6" class="node">
<title>Node6</title>
<g id="a_node6"><a xlink:href="arduino__lmic_8h.html" target="_top" xlink:title=" ">
<polygon fill="white" stroke="black" points="18,-56.5 18,-75.5 107,-75.5 107,-56.5 18,-56.5"/>
<text text-anchor="middle" x="62.5" y="-63.5" font-family="Helvetica,sans-Serif" font-size="10.00">arduino_lmic.h</text>
</a>
</g>
</g>
<!-- Node5&#45;&gt;Node6 -->
<g id="edge5" class="edge">
<title>Node5&#45;&gt;Node6</title>
<path fill="none" stroke="midnightblue" d="M90.96,-272.23C85.3,-264.04 78.92,-253.86 74.5,-244 53.38,-196.87 50.45,-183.18 43.5,-132 42.3,-123.19 41.74,-120.71 43.5,-112 46.19,-98.7 52.94,-84.45 57.62,-75.63"/>
<polygon fill="midnightblue" stroke="midnightblue" points="88.21,-274.4 96.89,-280.49 93.9,-270.32 88.21,-274.4"/>
</g>
<!-- Node8 -->
<g id="node8" class="node">
<title>Node8</title>
<g id="a_node8"><a xlink:href="lmic__bandplan_8h.html" target="_top" xlink:title=" ">
<polygon fill="white" stroke="black" points="53,-112.5 53,-131.5 150,-131.5 150,-112.5 53,-112.5"/>
<text text-anchor="middle" x="101.5" y="-119.5" font-family="Helvetica,sans-Serif" font-size="10.00">lmic_bandplan.h</text>
</a>
</g>
</g>
<!-- Node5&#45;&gt;Node8 -->
<g id="edge7" class="edge">
<title>Node5&#45;&gt;Node8</title>
<path fill="none" stroke="midnightblue" d="M92.74,-271.69C88.32,-263.59 83.73,-253.64 81.5,-244 73.89,-211.09 74.49,-201.04 81.5,-168 84.34,-154.62 91.44,-140.39 96.37,-131.59"/>
<polygon fill="midnightblue" stroke="midnightblue" points="89.8,-273.6 97.86,-280.48 95.85,-270.08 89.8,-273.6"/>
</g>
<!-- Node9 -->
<g id="node9" class="node">
<title>Node9</title>
<g id="a_node9"><a xlink:href="lmic__compliance_8h.html" target="_top" xlink:title=" ">
<polygon fill="white" stroke="black" points="90.5,-224.5 90.5,-243.5 198.5,-243.5 198.5,-224.5 90.5,-224.5"/>
<text text-anchor="middle" x="144.5" y="-231.5" font-family="Helvetica,sans-Serif" font-size="10.00">lmic_compliance.h</text>
</a>
</g>
</g>
<!-- Node5&#45;&gt;Node9 -->
<g id="edge9" class="edge">
<title>Node5&#45;&gt;Node9</title>
<path fill="none" stroke="midnightblue" d="M116.52,-271.86C123.62,-262.5 132.1,-251.33 137.86,-243.75"/>
<polygon fill="midnightblue" stroke="midnightblue" points="113.53,-270 110.27,-280.08 119.11,-274.24 113.53,-270"/>
</g>
<!-- Node10 -->
<g id="node10" class="node">
<title>Node10</title>
<g id="a_node10"><a xlink:href="lmic__eu__like_8h.html" target="_top" xlink:title=" ">
<polygon fill="white" stroke="black" points="263.5,-224.5 263.5,-243.5 349.5,-243.5 349.5,-224.5 263.5,-224.5"/>
<text text-anchor="middle" x="306.5" y="-231.5" font-family="Helvetica,sans-Serif" font-size="10.00">lmic_eu_like.h</text>
</a>
</g>
</g>
<!-- Node5&#45;&gt;Node10 -->
<g id="edge10" class="edge">
<title>Node5&#45;&gt;Node10</title>
<path fill="none" stroke="midnightblue" d="M137.27,-280.02C175.36,-269.89 236.86,-253.52 274.3,-243.57"/>
<polygon fill="midnightblue" stroke="midnightblue" points="135.95,-276.75 127.18,-282.7 137.75,-283.51 135.95,-276.75"/>
</g>
<!-- Node7 -->
<g id="node7" class="node">
<title>Node7</title>
<g id="a_node7"><a xlink:href="lmic_8h.html" target="_top" xlink:title=" ">
<polygon fill="white" stroke="black" points="39,-0.5 39,-19.5 86,-19.5 86,-0.5 39,-0.5"/>
<text text-anchor="middle" x="62.5" y="-7.5" font-family="Helvetica,sans-Serif" font-size="10.00">lmic.h</text>
</a>
</g>
</g>
<!-- Node6&#45;&gt;Node7 -->
<g id="edge6" class="edge">
<title>Node6&#45;&gt;Node7</title>
<path fill="none" stroke="midnightblue" d="M62.5,-45.8C62.5,-36.91 62.5,-26.78 62.5,-19.75"/>
<polygon fill="midnightblue" stroke="midnightblue" points="59,-46.08 62.5,-56.08 66,-46.08 59,-46.08"/>
</g>
<!-- Node8&#45;&gt;Node6 -->
<g id="edge8" class="edge">
<title>Node8&#45;&gt;Node6</title>
<path fill="none" stroke="midnightblue" d="M89.12,-103.86C82.36,-94.5 74.29,-83.33 68.82,-75.75"/>
<polygon fill="midnightblue" stroke="midnightblue" points="86.37,-106.03 95.06,-112.08 92.04,-101.93 86.37,-106.03"/>
</g>
<!-- Node11 -->
<g id="node11" class="node">
<title>Node11</title>
<g id="a_node11"><a xlink:href="lmic__bandplan__as923_8h.html" target="_top" xlink:title=" ">
<polygon fill="white" stroke="black" points="91,-168.5 91,-187.5 222,-187.5 222,-168.5 91,-168.5"/>
<text text-anchor="middle" x="156.5" y="-175.5" font-family="Helvetica,sans-Serif" font-size="10.00">lmic_bandplan_as923.h</text>
</a>
</g>
</g>
<!-- Node10&#45;&gt;Node11 -->
<g id="edge11" class="edge">
<title>Node10&#45;&gt;Node11</title>
<path fill="none" stroke="midnightblue" d="M273.28,-221.04C245.05,-210.88 205.24,-196.55 180.16,-187.52"/>
<polygon fill="midnightblue" stroke="midnightblue" points="272.14,-224.35 282.73,-224.44 274.51,-217.76 272.14,-224.35"/>
</g>
<!-- Node12 -->
<g id="node12" class="node">
<title>Node12</title>
<g id="a_node12"><a xlink:href="lmic__bandplan__eu868_8h.html" target="_top" xlink:title=" ">
<polygon fill="white" stroke="black" points="240.5,-168.5 240.5,-187.5 372.5,-187.5 372.5,-168.5 240.5,-168.5"/>
<text text-anchor="middle" x="306.5" y="-175.5" font-family="Helvetica,sans-Serif" font-size="10.00">lmic_bandplan_eu868.h</text>
</a>
</g>
</g>
<!-- Node10&#45;&gt;Node12 -->
<g id="edge12" class="edge">
<title>Node10&#45;&gt;Node12</title>
<path fill="none" stroke="midnightblue" d="M306.5,-213.8C306.5,-204.91 306.5,-194.78 306.5,-187.75"/>
<polygon fill="midnightblue" stroke="midnightblue" points="303,-214.08 306.5,-224.08 310,-214.08 303,-214.08"/>
</g>
<!-- Node13 -->
<g id="node13" class="node">
<title>Node13</title>
<g id="a_node13"><a xlink:href="lmic__bandplan__in866_8h.html" target="_top" xlink:title=" ">
<polygon fill="white" stroke="black" points="391,-168.5 391,-187.5 520,-187.5 520,-168.5 391,-168.5"/>
<text text-anchor="middle" x="455.5" y="-175.5" font-family="Helvetica,sans-Serif" font-size="10.00">lmic_bandplan_in866.h</text>
</a>
</g>
</g>
<!-- Node10&#45;&gt;Node13 -->
<g id="edge14" class="edge">
<title>Node10&#45;&gt;Node13</title>
<path fill="none" stroke="midnightblue" d="M339.87,-220.91C367.88,-210.75 407.2,-196.51 432,-187.52"/>
<polygon fill="midnightblue" stroke="midnightblue" points="338.32,-217.75 330.11,-224.44 340.7,-224.33 338.32,-217.75"/>
</g>
<!-- Node14 -->
<g id="node14" class="node">
<title>Node14</title>
<g id="a_node14"><a xlink:href="lmic__bandplan__kr920_8h.html" target="_top" xlink:title=" ">
<polygon fill="white" stroke="black" points="538.5,-168.5 538.5,-187.5 668.5,-187.5 668.5,-168.5 538.5,-168.5"/>
<text text-anchor="middle" x="603.5" y="-175.5" font-family="Helvetica,sans-Serif" font-size="10.00">lmic_bandplan_kr920.h</text>
</a>
</g>
</g>
<!-- Node10&#45;&gt;Node14 -->
<g id="edge15" class="edge">
<title>Node10&#45;&gt;Node14</title>
<path fill="none" stroke="midnightblue" d="M359.75,-223.32C415.68,-213.15 502.8,-197.31 556.33,-187.58"/>
<polygon fill="midnightblue" stroke="midnightblue" points="358.9,-219.92 349.69,-225.15 360.15,-226.8 358.9,-219.92"/>
</g>
<!-- Node12&#45;&gt;Node8 -->
<g id="edge13" class="edge">
<title>Node12&#45;&gt;Node8</title>
<path fill="none" stroke="midnightblue" d="M264.09,-165.83C225.39,-155.63 169.01,-140.78 133.83,-131.52"/>
<polygon fill="midnightblue" stroke="midnightblue" points="263.46,-169.28 274.02,-168.44 265.24,-162.51 263.46,-169.28"/>
</g>
</g>
</svg>
